<svg width="214" height="209" viewBox="0 0 214 209" fill="none" xmlns="http://www.w3.org/2000/svg">
<g filter="url(#filter0_d)">
<path d="M110.956 196.509C165.609 196.509 209.913 171.342 209.913 140.297C209.913 109.252 165.609 84.0846 110.956 84.0846C56.3043 84.0846 12 109.252 12 140.297C12 171.342 56.3043 196.509 110.956 196.509Z" fill="#FAFAFA"/>
<path d="M175.379 141.791C185.941 141.791 194.503 136.847 194.503 130.748C194.503 124.649 185.941 119.705 175.379 119.705C164.817 119.705 156.254 124.649 156.254 130.748C156.254 136.847 164.817 141.791 175.379 141.791Z" fill="#E6E6E6"/>
<path d="M149.919 154.066C149.92 154.026 149.91 153.987 149.893 153.951L144.382 142.075C144.265 141.93 144.109 141.822 143.932 141.763C143.755 141.704 143.566 141.697 143.385 141.742L44.1048 157.103C43.7368 157.161 43.4975 157.356 43.5019 157.546V159.625C43.5027 159.665 43.5117 159.704 43.5285 159.741L49.0389 171.613C49.1564 171.757 49.3126 171.865 49.4892 171.924C49.6659 171.983 49.8557 171.99 50.0363 171.945L149.339 156.584C149.711 156.527 149.95 156.332 149.942 156.119L149.919 154.066Z" fill="#37474F"/>
<path d="M44.1048 157.103L143.407 141.742C143.588 141.697 143.777 141.704 143.954 141.763C144.131 141.822 144.287 141.93 144.405 142.075L149.893 153.951C150.008 154.199 149.751 154.456 149.316 154.523L50.0363 169.884C49.8557 169.93 49.6656 169.923 49.4887 169.864C49.3118 169.805 49.1556 169.696 49.0389 169.551L43.5285 157.688C43.4132 157.426 43.6703 157.169 44.1048 157.103Z" fill="#455A64"/>
<path d="M49.5531 159.306L52.8514 166.404L65.1489 164.502L61.8551 157.404L49.5531 159.306Z" fill="#9A4A4D"/>
<path d="M81.0417 154.434L84.3355 161.532L96.6374 159.63L93.3392 152.532L81.0417 154.434Z" fill="#9A4A4D"/>
<path opacity="0.4" d="M81.0417 154.434L84.3355 161.532L96.6374 159.63L93.3392 152.532L81.0417 154.434Z" fill="white"/>
<path d="M96.7837 151.996L100.082 159.098L112.38 157.196L109.086 150.094L96.7837 151.996Z" fill="#9A4A4D"/>
<path opacity="0.6" d="M96.7837 151.996L100.082 159.098L112.38 157.196L109.086 150.094L96.7837 151.996Z" fill="white"/>
<path d="M112.526 149.562L115.824 156.664L128.122 154.758L124.828 147.66L112.526 149.562Z" fill="#9A4A4D"/>
<path opacity="0.8" d="M112.526 149.562L115.824 156.664L128.122 154.758L124.828 147.66L112.526 149.562Z" fill="white"/>
<path d="M128.272 147.128L131.566 154.226L143.868 152.324L140.57 145.222L128.272 147.128Z" fill="#9A4A4D"/>
<path d="M128.272 147.128L131.566 154.226L143.868 152.324L140.57 145.222L128.272 147.128Z" fill="white"/>
<path d="M65.2996 156.868L68.5934 163.97L80.891 162.064L77.5971 154.966L65.2996 156.868Z" fill="#9A4A4D"/>
<path opacity="0.2" d="M65.2996 156.868L68.5934 163.97L80.891 162.064L77.5971 154.966L65.2996 156.868Z" fill="white"/>
<path d="M49.2871 169.786V171.874C49.1813 171.827 49.094 171.746 49.0389 171.643L43.5285 159.772C43.5134 159.736 43.5044 159.699 43.5019 159.661V157.577C43.5017 157.617 43.5108 157.657 43.5285 157.692L49.0389 169.564C49.0972 169.662 49.1838 169.739 49.2871 169.786Z" fill="#263238"/>
<path d="M144.542 134.977C144.541 134.933 144.531 134.891 144.512 134.851C144.494 134.811 144.468 134.776 144.436 134.747L133.796 124.107C133.639 123.988 133.456 123.911 133.261 123.88C133.067 123.85 132.869 123.869 132.683 123.934L43.6615 153.601C43.4044 153.689 43.2625 153.844 43.2581 154.004V156.079C43.259 156.123 43.2689 156.167 43.2872 156.207C43.3055 156.248 43.3318 156.284 43.3645 156.314L54.004 166.953C54.1603 167.073 54.344 167.151 54.5384 167.181C54.7327 167.211 54.9315 167.192 55.1167 167.126L144.13 137.464C144.391 137.38 144.533 137.22 144.533 137.056L144.542 134.977Z" fill="#37474F"/>
<path d="M43.6615 153.601L132.674 123.93C132.86 123.864 133.058 123.846 133.253 123.876C133.447 123.906 133.63 123.984 133.787 124.102L144.427 134.742C144.653 134.968 144.52 135.256 144.13 135.385L55.1211 165.06C54.9358 165.125 54.7372 165.144 54.5431 165.113C54.349 165.083 54.1653 165.006 54.0084 164.887L43.3689 154.248C43.1384 154.022 43.2713 153.734 43.6615 153.601Z" fill="#455A64"/>
<path d="M49.9122 154.913L56.2826 161.279L67.3078 157.604L60.9418 151.238L49.9122 154.913Z" fill="#3D4695"/>
<path opacity="0.6" d="M49.9122 154.913L56.2826 161.279L67.3078 157.604L60.9418 151.238L49.9122 154.913Z" fill="black"/>
<path d="M78.1424 145.506L84.5128 151.867L95.538 148.192L89.172 141.826L78.1424 145.506Z" fill="#3D4695"/>
<g opacity="0.4">
<path opacity="0.4" d="M78.1424 145.506L84.5128 151.867L95.538 148.192L89.172 141.826L78.1424 145.506Z" fill="black"/>
</g>
<path d="M92.2575 140.798L98.6279 147.164L109.653 143.489L103.287 137.123L92.2575 140.798Z" fill="#3D4695"/>
<g opacity="0.3">
<path opacity="0.3" d="M92.2575 140.798L98.6279 147.164L109.653 143.489L103.287 137.123L92.2575 140.798Z" fill="black"/>
</g>
<path d="M106.373 136.094L112.743 142.46L123.768 138.781L117.402 132.419L106.373 136.094Z" fill="#FFA8A7"/>
<path d="M106.373 136.094L112.743 142.46L123.768 138.781L117.402 132.419L106.373 136.094Z" fill="#3D4695"/>
<path opacity="0.2" d="M106.373 136.094L112.743 142.46L123.768 138.781L117.402 132.419L106.373 136.094Z" fill="black"/>
<path d="M120.488 131.391L126.858 137.752L137.883 134.077L131.517 127.711L120.488 131.391Z" fill="#FFA8A7"/>
<path d="M120.488 131.391L126.858 137.752L137.883 134.077L131.517 127.711L120.488 131.391Z" fill="#3D4695"/>
<path opacity="0.1" d="M120.488 131.391L126.858 137.752L137.883 134.077L131.517 127.711L120.488 131.391Z" fill="black"/>
<path d="M64.0273 150.209L70.3977 156.575L81.4229 152.896L75.0569 146.534L64.0273 150.209Z" fill="#3D4695"/>
<g opacity="0.5">
<path opacity="0.5" d="M64.0273 150.209L70.3977 156.575L81.4229 152.896L75.0569 146.534L64.0273 150.209Z" fill="black"/>
</g>
<path d="M54.4694 165.1V167.175C54.3046 167.147 54.1509 167.073 54.0261 166.962L43.3866 156.323C43.3539 156.293 43.3276 156.256 43.3094 156.216C43.2911 156.176 43.2812 156.132 43.2802 156.088V154.044C43.2891 154.123 43.327 154.195 43.3866 154.248L54.0261 164.887C54.1509 164.999 54.3046 165.072 54.4694 165.1Z" fill="#263238"/>
<path d="M42.8325 151.708V152.457C42.8443 152.657 42.9026 152.851 43.0026 153.024C43.1027 153.197 43.2417 153.344 43.4088 153.454L58.4814 162.143C58.6597 162.235 58.8573 162.283 59.0577 162.283C59.2582 162.283 59.4558 162.235 59.634 162.143L132.293 120.184C132.461 120.074 132.601 119.927 132.701 119.754C132.801 119.581 132.859 119.386 132.869 119.186V118.437C132.859 118.237 132.801 118.042 132.701 117.869C132.601 117.696 132.461 117.548 132.293 117.44L117.243 108.746C117.064 108.656 116.866 108.61 116.666 108.61C116.466 108.61 116.269 108.656 116.09 108.746L43.4088 150.71C43.2413 150.82 43.1018 150.967 43.0017 151.14C42.9016 151.314 42.8436 151.508 42.8325 151.708Z" fill="#37474F"/>
<path d="M43.4088 150.71L116.112 108.746C116.291 108.656 116.488 108.61 116.688 108.61C116.889 108.61 117.086 108.656 117.265 108.746L132.315 117.44C132.634 117.621 132.634 117.918 132.315 118.104L59.6163 160.064C59.4377 160.155 59.2403 160.202 59.04 160.202C58.8397 160.202 58.6422 160.155 58.4637 160.064L43.391 151.375C43.3217 151.35 43.262 151.304 43.2204 151.243C43.1788 151.182 43.1575 151.11 43.1594 151.036C43.1614 150.963 43.1865 150.891 43.2313 150.833C43.2761 150.774 43.3382 150.731 43.4088 150.71Z" fill="#455A64"/>
<path d="M59.04 160.206V162.281C58.8393 162.285 58.6408 162.238 58.4637 162.143L43.4132 153.454C43.2459 153.345 43.1067 153.197 43.0066 153.024C42.9065 152.851 42.8484 152.657 42.8369 152.457V151.708C42.8438 151.533 42.8867 151.361 42.963 151.203C43.0393 151.045 43.1473 150.904 43.2802 150.79C43.0807 150.972 43.1206 151.233 43.3955 151.375L58.446 160.064C58.6279 160.163 58.8329 160.212 59.04 160.206Z" fill="#263238"/>
<path d="M43.4088 150.71L116.112 108.746C116.291 108.656 116.488 108.61 116.688 108.61C116.889 108.61 117.086 108.656 117.265 108.746L132.315 117.44C132.634 117.621 132.634 117.918 132.315 118.104L59.6163 160.064C59.4374 160.154 59.2401 160.201 59.04 160.201C58.8399 160.201 58.6426 160.154 58.4637 160.064L43.391 151.375C43.3217 151.35 43.262 151.304 43.2204 151.243C43.1788 151.182 43.1575 151.11 43.1594 151.036C43.1614 150.963 43.1865 150.891 43.2313 150.833C43.2761 150.774 43.3382 150.731 43.4088 150.71Z" fill="#455A64"/>
<path d="M50.0363 151.043L59.04 156.238L68.0437 151.038L59.04 145.843L50.0363 151.043Z" fill="#3D4695"/>
<path d="M73.0886 137.734L82.0923 142.93L91.0916 137.73L82.0923 132.534L73.0886 137.734Z" fill="#3D4695"/>
<path opacity="0.4" d="M73.0886 137.734L82.0923 142.93L91.0916 137.73L82.0923 132.534L73.0886 137.734Z" fill="white"/>
<path d="M84.6104 131.08L93.6141 136.276L102.618 131.076L93.6185 125.88L84.6104 131.08Z" fill="#3D4695"/>
<path opacity="0.6" d="M84.6104 131.08L93.6141 136.276L102.618 131.076L93.6185 125.88L84.6104 131.08Z" fill="white"/>
<path d="M96.1365 124.426L105.14 129.622L114.144 124.422L105.14 119.226L96.1365 124.426Z" fill="#3D4695"/>
<path opacity="0.8" d="M96.1365 124.426L105.14 129.622L114.144 124.422L105.14 119.226L96.1365 124.426Z" fill="white"/>
<path d="M107.663 117.772L116.666 122.968L125.67 117.768L116.666 112.572L107.663 117.772Z" fill="#3D4695"/>
<path d="M107.663 117.772L116.666 122.968L125.67 117.768L116.666 112.572L107.663 117.772Z" fill="white"/>
<path d="M61.5625 144.389L70.5662 149.584L79.5699 144.384L70.5662 139.188L61.5625 144.389Z" fill="#3D4695"/>
<path opacity="0.2" d="M61.5625 144.389L70.5662 149.584L79.5699 144.384L70.5662 139.188L61.5625 144.389Z" fill="white"/>
<path d="M47.9306 150.515C48.0401 150.553 48.1351 150.625 48.2023 150.719C48.2695 150.814 48.3056 150.927 48.3056 151.043C48.3056 151.159 48.2695 151.272 48.2023 151.366C48.1351 151.461 48.0401 151.532 47.9306 151.57C47.6471 151.712 47.3344 151.786 47.0174 151.786C46.7003 151.786 46.3876 151.712 46.1041 151.57C45.9946 151.532 45.8997 151.461 45.8325 151.366C45.7653 151.272 45.7292 151.159 45.7292 151.043C45.7292 150.927 45.7653 150.814 45.8325 150.719C45.8997 150.625 45.9946 150.553 46.1041 150.515C46.3869 150.371 46.6999 150.296 47.0174 150.296C47.3349 150.296 47.6478 150.371 47.9306 150.515Z" fill="#263238"/>
<path d="M47.2345 150.307C46.6298 148.905 45.6571 147.692 44.4193 146.798C43.1816 145.904 41.725 145.361 40.2039 145.228C38.6828 145.094 37.1539 145.375 35.7793 146.04C34.4046 146.704 33.2355 147.729 32.3957 149.004C31.5559 150.279 31.0767 151.758 31.0091 153.283C30.9414 154.809 31.2877 156.324 32.0112 157.669C32.7348 159.013 33.8087 160.137 35.119 160.921C36.4294 161.705 37.9275 162.119 39.4544 162.121C41.0653 162.123 42.6428 161.662 43.9984 160.791L43.5284 159.776C43.5133 159.741 43.5044 159.703 43.5018 159.665V159.528C42.3131 160.352 40.9008 160.793 39.4544 160.791C38.1755 160.791 36.92 160.448 35.8195 159.796C34.719 159.144 33.814 158.209 33.1991 157.088C32.5842 155.966 32.2822 154.7 32.3246 153.422C32.367 152.144 32.7523 150.9 33.4402 149.822C34.128 148.744 35.0931 147.87 36.2344 147.293C37.3756 146.716 38.6511 146.456 39.9272 146.541C41.2033 146.626 42.4331 147.052 43.4879 147.776C44.5426 148.499 45.3834 149.493 45.9223 150.653C46.0789 150.985 46.2064 151.331 46.3036 151.686C46.7516 151.841 47.2387 151.841 47.6867 151.686C47.5756 151.214 47.4243 150.753 47.2345 150.307Z" fill="#E0E0E0"/>
<path d="M33.3988 67.5135C33.375 67.1005 33.2553 66.6987 33.049 66.3401C32.8428 65.9815 32.5557 65.6759 32.2107 65.4477L31.2398 64.8891C30.8704 64.7011 30.4618 64.6031 30.0473 64.6031C29.6328 64.6031 29.2242 64.7011 28.8548 64.8891L21.1766 69.3223C20.8316 69.5494 20.5452 69.855 20.341 70.2141C20.1369 70.5731 20.0206 70.9755 20.0018 71.3881V80.2544C20.021 80.6676 20.1373 81.0704 20.3415 81.4301C20.5456 81.7898 20.8317 82.0963 21.1766 82.3247L22.1475 82.8832C22.2282 82.9301 22.3127 82.9702 22.4002 83.0029L22.4977 83.034C22.5553 83.0563 22.6146 83.0741 22.675 83.0872L22.8124 83.1182L22.9632 83.1404H23.1316H23.5483C23.6227 83.1359 23.6967 83.127 23.77 83.1138H23.8276L24.0626 83.065H24.0936C24.2481 83.0244 24.3971 82.9649 24.5369 82.8877L32.2196 78.4545C32.5646 78.2263 32.8517 77.9207 33.0579 77.5621C33.2641 77.2035 33.3839 76.8017 33.4076 76.3887L33.3988 67.5135Z" fill="#3D4695"/>
<path opacity="0.4" d="M33.3855 67.314C33.2968 66.7023 32.8047 66.4806 32.2107 66.8264L24.5281 71.2418C24.1779 71.4613 23.8895 71.7664 23.6902 72.1284L20.3343 70.1911C20.5352 69.8288 20.8251 69.5237 21.1766 69.3045L28.8548 64.8714C29.2234 64.6834 29.6313 64.5854 30.0451 64.5854C30.4589 64.5854 30.8668 64.6834 31.2354 64.8714L32.2107 65.43C32.5307 65.6408 32.8013 65.9184 33.0041 66.2436C33.2068 66.5687 33.3369 66.9339 33.3855 67.314Z" fill="white"/>
<path opacity="0.1" d="M24.3153 82.9763C24.292 82.9898 24.2665 82.9988 24.2399 83.0029L24.067 83.0606C23.9134 83.1052 23.7561 83.1363 23.5971 83.1536C23.5189 83.1582 23.4404 83.1582 23.3621 83.1536C22.9455 83.1623 22.5336 83.0647 22.1652 82.8699L21.1766 82.3246C20.8335 82.0945 20.5486 81.7876 20.3447 81.4283C20.1408 81.0689 20.0234 80.667 20.0018 80.2544V71.3881C20.0072 71.1351 20.0551 70.8848 20.1437 70.6478C20.1836 70.5502 20.2235 70.4527 20.2723 70.3596C20.2962 70.3094 20.3228 70.2606 20.352 70.2133L23.7079 72.1506C23.4901 72.5047 23.3693 72.9098 23.3577 73.3254V82.1917C23.3577 82.768 23.6636 83.0783 24.098 83.0384H24.1734C24.2221 83.0211 24.2695 83.0003 24.3153 82.9763Z" fill="black"/>
<path d="M33.3988 85.2416C33.375 84.8286 33.2553 84.4268 33.049 84.0682C32.8428 83.7096 32.5557 83.404 32.2107 83.1758L31.2398 82.6172C30.8704 82.4292 30.4618 82.3312 30.0473 82.3312C29.6328 82.3312 29.2242 82.4292 28.8548 82.6172L21.1766 87.0504C20.8322 87.277 20.5462 87.5819 20.342 87.9402C20.1379 88.2984 20.0213 88.6999 20.0018 89.1118V97.978C20.0189 98.3929 20.1343 98.7977 20.3386 99.1592C20.5428 99.5207 20.8301 99.8285 21.1766 100.057L22.1475 100.62C22.2282 100.667 22.3127 100.707 22.4002 100.74L22.4977 100.771C22.5553 100.771 22.6129 100.811 22.675 100.824L22.8124 100.851L22.9632 100.877C23.0192 100.882 23.0756 100.882 23.1316 100.877H23.2558H23.4508H23.5439H23.7656H23.8232C23.9025 100.864 23.981 100.847 24.0582 100.824H24.0892C24.2437 100.784 24.3926 100.724 24.5325 100.647L32.2151 96.2136C32.5602 95.9854 32.8472 95.6798 33.0535 95.3212C33.2597 94.9626 33.3795 94.5608 33.4032 94.1478L33.3988 85.2416Z" fill="#F28F8F"/>
<path opacity="0.4" d="M33.3855 85.0378C33.2968 84.4304 32.8047 84.2043 32.2107 84.5546L24.5281 88.9744C24.1769 89.1926 23.8882 89.4981 23.6902 89.861L20.3343 87.9237C20.5339 87.5605 20.8241 87.2551 21.1766 87.0371L28.8548 82.604C29.2234 82.416 29.6313 82.318 30.0451 82.318C30.4589 82.318 30.8668 82.416 31.2354 82.604L32.2107 83.1626C32.5296 83.3725 32.7996 83.6486 33.0023 83.9722C33.2051 84.2958 33.3357 84.6592 33.3855 85.0378Z" fill="white"/>
<path opacity="0.1" d="M24.3153 100.704C24.2912 100.716 24.2659 100.725 24.2399 100.731C24.1836 100.753 24.1258 100.771 24.067 100.784C23.9144 100.833 23.7568 100.864 23.5971 100.877C23.5189 100.882 23.4404 100.882 23.3621 100.877C22.9455 100.886 22.5336 100.788 22.1652 100.594L21.1766 100.057C20.8329 99.8266 20.5477 99.519 20.3437 99.1588C20.1398 98.7986 20.0227 98.3958 20.0018 97.9825V89.1162C20.0065 88.8631 20.0545 88.6127 20.1437 88.3759C20.1812 88.276 20.2241 88.1784 20.2723 88.0833C20.2962 88.0345 20.3228 87.9872 20.352 87.9414L23.6902 89.861C23.4723 90.215 23.3515 90.6202 23.34 91.0357V99.902C23.34 100.478 23.6459 100.789 24.0803 100.744H24.1557L24.3153 100.704Z" fill="black"/>
<path d="M33.3988 102.965C33.3768 102.552 33.2577 102.151 33.0513 101.793C32.8449 101.434 32.5569 101.13 32.2107 100.904L31.2398 100.341C30.8697 100.155 30.4614 100.059 30.0473 100.059C29.6333 100.059 29.2249 100.155 28.8548 100.341L21.1766 104.774C20.8232 104.992 20.5317 105.298 20.3299 105.661C20.1226 106.02 20.0097 106.425 20.0018 106.84V115.706C20.0189 116.122 20.1343 116.527 20.3385 116.889C20.5427 117.251 20.83 117.56 21.1766 117.79L22.1475 118.348C22.2273 118.397 22.312 118.437 22.4002 118.468L22.4977 118.503L22.675 118.557L22.8124 118.583L22.9632 118.61H23.1316H23.2558H23.5483H23.77H23.8276L24.0626 118.561H24.0936C24.2483 118.519 24.3972 118.458 24.5369 118.379L32.2196 113.946C32.5657 113.72 32.8537 113.416 33.0602 113.058C33.2666 112.699 33.3856 112.298 33.4076 111.885L33.3988 102.965Z" fill="#B16668"/>
<path opacity="0.2" d="M33.3855 102.766C33.2968 102.154 32.8047 101.932 32.2107 102.278L24.5281 106.707C24.1779 106.926 23.8895 107.232 23.6902 107.594L20.3343 105.656C20.5352 105.294 20.8251 104.989 21.1766 104.77L28.8548 100.337C29.2234 100.149 29.6313 100.051 30.0451 100.051C30.4589 100.051 30.8668 100.149 31.2354 100.337L32.2107 100.9C32.5286 101.109 32.798 101.383 33.0006 101.705C33.2033 102.027 33.3345 102.389 33.3855 102.766Z" fill="white"/>
<path opacity="0.3" d="M24.3153 118.433L24.2399 118.459C24.1823 118.459 24.1246 118.499 24.067 118.512C23.9144 118.561 23.7568 118.592 23.5971 118.605C23.5189 118.61 23.4404 118.61 23.3621 118.605C22.9455 118.614 22.5336 118.517 22.1652 118.322L21.1766 117.79C20.8317 117.558 20.5458 117.249 20.3418 116.888C20.1378 116.526 20.0214 116.121 20.0018 115.706V106.84C20.007 106.588 20.055 106.34 20.1437 106.104C20.1812 106.004 20.2241 105.907 20.2723 105.811C20.2962 105.761 20.3228 105.712 20.352 105.665L23.6902 107.594C23.4723 107.948 23.3515 108.353 23.34 108.768V117.635C23.34 118.211 23.6459 118.521 24.0803 118.481H24.1557L24.3153 118.433Z" fill="black"/>
<path d="M33.3988 120.693C33.375 120.28 33.2553 119.879 33.049 119.52C32.8428 119.161 32.5557 118.856 32.2107 118.628L31.2398 118.069C30.8704 117.881 30.4618 117.783 30.0473 117.783C29.6328 117.783 29.2242 117.881 28.8548 118.069L21.1766 122.502C20.8316 122.729 20.5452 123.035 20.341 123.394C20.1369 123.753 20.0206 124.155 20.0018 124.568V133.434C20.0207 133.85 20.1368 134.255 20.3408 134.618C20.5449 134.981 20.8311 135.29 21.1766 135.522L22.1475 136.081C22.2282 136.128 22.3127 136.168 22.4002 136.201L22.4977 136.232C22.5553 136.232 22.6129 136.271 22.675 136.285C22.7371 136.298 22.7681 136.285 22.8124 136.311C22.8617 136.325 22.9122 136.334 22.9632 136.338H23.1316H23.2558C23.3223 136.338 23.3887 136.338 23.4508 136.338H23.5483L23.77 136.311H23.8276C23.9069 136.298 23.9854 136.281 24.0626 136.258H24.0936C24.2481 136.218 24.3971 136.158 24.5369 136.081L32.2196 131.648C32.5646 131.419 32.8517 131.114 33.0579 130.755C33.2641 130.397 33.3839 129.995 33.4076 129.582L33.3988 120.693Z" fill="#455A64"/>
<path opacity="0.1" d="M33.3855 120.489C33.2968 119.882 32.8047 119.66 32.2107 120.006L24.5281 124.439C24.1779 124.659 23.8895 124.964 23.6902 125.326L20.3343 123.389C20.5352 123.026 20.8251 122.721 21.1766 122.502L28.8548 118.069C29.2234 117.881 29.6313 117.783 30.0451 117.783C30.4589 117.783 30.8668 117.881 31.2354 118.069L32.2107 118.628C32.5281 118.836 32.7971 119.11 32.9998 119.431C33.2024 119.752 33.3339 120.113 33.3855 120.489Z" fill="white"/>
<path opacity="0.4" d="M24.3153 136.156C24.292 136.17 24.2665 136.179 24.2399 136.183L24.067 136.24C23.9134 136.285 23.7561 136.316 23.5971 136.334H23.3621C22.9455 136.342 22.5336 136.245 22.1652 136.05L21.1766 135.522C20.8311 135.29 20.5449 134.981 20.3408 134.618C20.1368 134.255 20.0207 133.85 20.0018 133.434V124.568C20.0065 124.315 20.0545 124.065 20.1437 123.828C20.1812 123.728 20.2241 123.63 20.2723 123.535C20.2962 123.486 20.3228 123.439 20.352 123.393L23.6902 125.326C23.4723 125.68 23.3515 126.085 23.34 126.501V135.367C23.34 135.943 23.6459 136.254 24.0803 136.209H24.1557C24.2102 136.196 24.2635 136.178 24.3153 136.156Z" fill="black"/>
<path d="M133.49 9.7542C133.466 9.3408 133.345 8.93876 133.138 8.58011C132.931 8.22146 132.643 7.91611 132.298 7.68836L131.331 7.12979C130.962 6.94176 130.553 6.84375 130.139 6.84375C129.724 6.84375 129.316 6.94176 128.946 7.12979L121.268 11.5629C120.924 11.7873 120.637 12.0897 120.431 12.4455C120.226 12.8014 120.107 13.2007 120.084 13.611V22.4773C120.109 22.8907 120.229 23.2927 120.436 23.6514C120.643 24.01 120.931 24.3154 121.277 24.5431L122.248 25.1372C122.327 25.1832 122.41 25.2232 122.496 25.2569L122.598 25.2879C122.656 25.2879 122.713 25.3278 122.775 25.3411C122.837 25.3544 122.868 25.3411 122.913 25.3677C122.962 25.3812 123.012 25.3901 123.063 25.3943H123.232H123.644L123.866 25.3677H123.923C124.003 25.3547 124.081 25.3369 124.158 25.3145H124.189C124.344 25.2731 124.492 25.2136 124.633 25.1372L132.315 20.7041C132.66 20.4726 132.946 20.1636 133.15 19.8018C133.354 19.44 133.471 19.0354 133.49 18.6205V9.7542Z" fill="#F5F5F5"/>
<path opacity="0.4" d="M133.49 9.55024C133.401 8.9429 132.909 8.72124 132.315 9.06703L124.624 13.5002C124.273 13.7184 123.984 14.0239 123.786 14.3868L120.426 12.4495C120.629 12.0879 120.921 11.7831 121.272 11.5629L128.951 7.12974C129.319 6.94176 129.727 6.84375 130.141 6.84375C130.555 6.84375 130.963 6.94176 131.331 7.12974L132.306 7.68832C132.625 7.89591 132.896 8.16956 133.1 8.49077C133.305 8.81198 133.438 9.17327 133.49 9.55024Z" fill="white"/>
<path opacity="0.1" d="M124.415 25.217C124.392 25.2305 124.367 25.2395 124.34 25.2436L124.167 25.3012C124.014 25.3458 123.856 25.377 123.697 25.3943C123.697 25.3943 123.697 25.3943 123.675 25.3943H123.44C123.024 25.403 122.612 25.3054 122.243 25.1106L121.277 24.552C120.93 24.3248 120.641 24.0196 120.434 23.661C120.226 23.3023 120.105 22.9 120.08 22.4862V13.6111C120.086 13.3578 120.136 13.1075 120.226 12.8707C120.264 12.7709 120.307 12.6732 120.355 12.5781C120.381 12.5294 120.404 12.4806 120.43 12.4363L123.79 14.3736C123.573 14.7276 123.452 15.1328 123.44 15.5483V24.4146C123.44 24.9909 123.746 25.3012 124.181 25.2569H124.256C124.31 25.2476 124.363 25.2343 124.415 25.217Z" fill="black"/>
<path d="M133.49 27.4824C133.468 27.0684 133.349 26.6654 133.142 26.3064C132.934 25.9474 132.645 25.6425 132.298 25.4165L131.331 24.8535C130.961 24.6679 130.553 24.5712 130.139 24.5712C129.725 24.5712 129.316 24.6679 128.946 24.8535L121.268 29.2867C120.914 29.5045 120.623 29.8099 120.421 30.1733C120.209 30.528 120.09 30.9306 120.075 31.3436V40.2099C120.097 40.6239 120.217 41.0268 120.424 41.3859C120.631 41.7449 120.92 42.0498 121.268 42.2758L122.239 42.8388C122.318 42.8851 122.401 42.9237 122.487 42.954L122.589 42.9895L122.766 43.0427L122.904 43.0693L123.055 43.0959H123.223H123.347H123.635H123.857H123.915C123.994 43.0843 124.072 43.0681 124.149 43.0471H124.181C124.335 43.0057 124.484 42.9462 124.624 42.8698L132.306 38.4367C132.653 38.2107 132.941 37.9062 133.147 37.5481C133.353 37.1899 133.473 36.7881 133.495 36.3753L133.49 27.4824Z" fill="#E0E0E0"/>
<path opacity="0.4" d="M133.49 27.2784C133.401 26.6666 132.909 26.445 132.315 26.7908L124.624 31.2283C124.272 31.4461 123.984 31.7517 123.786 32.115L120.426 30.1821C120.628 29.8196 120.92 29.5145 121.272 29.2955L128.951 24.8623C129.319 24.6744 129.727 24.5764 130.141 24.5764C130.555 24.5764 130.963 24.6744 131.331 24.8623L132.306 25.4209C132.625 25.628 132.895 25.901 133.1 26.2214C133.304 26.5418 133.437 26.9022 133.49 27.2784Z" fill="white"/>
<path opacity="0.1" d="M124.415 42.9451L124.34 42.9717L124.167 43.0249C124.015 43.0737 123.857 43.105 123.697 43.118C123.697 43.118 123.697 43.118 123.675 43.118C123.597 43.1225 123.518 43.1225 123.44 43.118C123.024 43.1267 122.612 43.029 122.243 42.8343L121.277 42.2757C120.93 42.0484 120.641 41.7433 120.434 41.3846C120.226 41.0259 120.105 40.6236 120.08 40.2098V31.3436C120.086 31.0917 120.136 30.8429 120.226 30.6077C120.264 30.5079 120.307 30.4102 120.355 30.3151C120.381 30.2663 120.404 30.2175 120.43 30.1732L123.79 32.1061C123.573 32.4604 123.452 32.8654 123.44 33.2808V42.1471C123.44 42.719 123.746 43.0337 124.181 42.9894H124.256C124.31 42.9788 124.364 42.964 124.415 42.9451Z" fill="black"/>
<path d="M133.49 45.206C133.468 44.7926 133.349 44.3903 133.142 44.032C132.934 43.6736 132.645 43.3695 132.298 43.1446L131.331 42.5816C130.962 42.3935 130.553 42.2955 130.139 42.2955C129.724 42.2955 129.316 42.3935 128.946 42.5816L121.268 47.0147C120.92 47.2398 120.63 47.5446 120.422 47.9038C120.215 48.263 120.096 48.6663 120.075 49.0805V57.9468C120.097 58.3608 120.217 58.7638 120.424 59.1228C120.631 59.4818 120.92 59.7867 121.268 60.0127L122.239 60.5712C122.318 60.6173 122.401 60.6573 122.487 60.6909L122.589 60.722C122.647 60.7444 122.706 60.7621 122.766 60.7752L122.904 60.8062H123.055H123.223H123.635C123.71 60.8017 123.784 60.7928 123.857 60.7796H123.915L124.149 60.7308H124.181C124.334 60.686 124.483 60.625 124.624 60.5491L132.306 56.1159C132.652 55.8877 132.939 55.5821 133.145 55.2235C133.351 54.8649 133.471 54.4631 133.495 54.0501L133.49 45.206Z" fill="#455A64"/>
<path opacity="0.2" d="M133.49 45.0065C133.401 44.3947 132.909 44.1731 132.315 44.5189L124.633 48.952C124.282 49.1702 123.993 49.4757 123.795 49.8386L120.435 47.9014C120.638 47.5398 120.929 47.235 121.281 47.0147L128.959 42.5816C129.328 42.3936 129.736 42.2956 130.15 42.2956C130.564 42.2956 130.971 42.3936 131.34 42.5816L132.315 43.1402C132.633 43.3491 132.903 43.6239 133.105 43.9459C133.308 44.2678 133.439 44.6295 133.49 45.0065Z" fill="white"/>
<path opacity="0.3" d="M124.415 60.6688L124.34 60.6998L124.167 60.753C124.014 60.7976 123.856 60.8288 123.697 60.8461C123.697 60.8461 123.697 60.8461 123.675 60.8461C123.597 60.8507 123.518 60.8507 123.44 60.8461C123.023 60.8535 122.611 60.7543 122.243 60.558L121.277 59.9994C120.93 59.7721 120.641 59.467 120.434 59.1083C120.226 58.7496 120.105 58.3473 120.08 57.9335V49.0761C120.087 48.823 120.137 48.5728 120.226 48.3358C120.266 48.2383 120.306 48.1408 120.355 48.0477L120.43 47.9014L123.79 49.8386C123.573 50.1927 123.452 50.5979 123.44 51.0134V59.8797C123.44 60.456 123.746 60.7663 124.181 60.7264H124.256C124.311 60.7114 124.364 60.6921 124.415 60.6688Z" fill="black"/>
<path d="M133.49 62.9341C133.468 62.5202 133.349 62.1172 133.142 61.7582C132.934 61.3992 132.645 61.0942 132.298 60.8683L131.331 60.3097C130.962 60.1217 130.553 60.0237 130.139 60.0237C129.724 60.0237 129.316 60.1217 128.946 60.3097L121.268 64.7429C120.92 64.968 120.63 65.2727 120.422 65.6319C120.215 65.9911 120.096 66.3945 120.075 66.8087V75.675C120.097 76.0884 120.217 76.4907 120.424 76.849C120.631 77.2073 120.92 77.5114 121.268 77.7364L122.239 78.2994C122.318 78.3454 122.401 78.3855 122.487 78.4191L122.589 78.4501C122.647 78.4501 122.704 78.49 122.766 78.5033C122.828 78.5166 122.859 78.5033 122.904 78.5299C122.954 78.5413 123.004 78.5502 123.055 78.5565H123.223H123.542H123.635C123.71 78.5535 123.784 78.5461 123.857 78.5343H123.915C123.994 78.5213 124.072 78.5036 124.149 78.4812H124.181C124.335 78.4398 124.484 78.3802 124.624 78.3038L132.306 73.8707C132.652 73.6425 132.939 73.3369 133.145 72.9783C133.351 72.6196 133.471 72.2179 133.495 71.8048L133.49 62.9341Z" fill="#263238"/>
<path opacity="0.1" d="M133.49 62.7302C133.401 62.1228 132.909 61.9012 132.315 62.247L124.633 66.6801C124.28 66.897 123.992 67.2028 123.795 67.5667L120.435 65.6294C120.638 65.2679 120.929 64.9631 121.281 64.7428L128.959 60.3097C129.328 60.1217 129.736 60.0237 130.15 60.0237C130.564 60.0237 130.971 60.1217 131.34 60.3097L132.315 60.8683C132.633 61.0768 132.902 61.3508 133.104 61.672C133.307 61.9931 133.439 62.3539 133.49 62.7302Z" fill="white"/>
<path opacity="0.4" d="M124.415 78.3968C124.391 78.4084 124.366 78.4173 124.34 78.4234C124.284 78.4452 124.226 78.463 124.167 78.4766C124.015 78.5255 123.857 78.5567 123.697 78.5697H123.675C123.597 78.5743 123.518 78.5743 123.44 78.5697C123.024 78.5784 122.612 78.4808 122.243 78.286L121.277 77.7274C120.93 77.5002 120.641 77.195 120.434 76.8364C120.226 76.4777 120.105 76.0754 120.08 75.6616V66.8086C120.086 66.5554 120.136 66.305 120.226 66.0683C120.264 65.9685 120.307 65.8708 120.355 65.7757C120.381 65.7269 120.404 65.6782 120.43 65.6339L123.79 67.5711C123.573 67.9252 123.452 68.3304 123.44 68.7459V77.6122C123.44 78.1885 123.746 78.4988 124.181 78.4545H124.256L124.415 78.3968Z" fill="black"/>
<path d="M83.1651 102.855L79.6186 100.802C79.232 100.552 78.91 100.214 78.6788 99.8155C78.4477 99.4172 78.314 98.9699 78.2887 98.51V68.5819C78.3137 68.1221 78.4472 67.6746 78.6784 67.2763C78.9095 66.8779 79.2317 66.5399 79.6186 66.29L105.526 51.3326C105.938 51.1228 106.394 51.0134 106.856 51.0134C107.318 51.0134 107.774 51.1228 108.186 51.3326L111.732 53.3896C112.119 53.6398 112.441 53.9778 112.672 54.3761C112.903 54.7744 113.037 55.2217 113.062 55.6815V85.6052C113.036 86.0655 112.903 86.5133 112.672 86.9123C112.441 87.3112 112.119 87.6502 111.732 87.9016L85.825 102.855C85.4137 103.066 84.9577 103.177 84.4951 103.177C84.0324 103.177 83.5764 103.066 83.1651 102.855Z" fill="#F5F5F5"/>
<path d="M85.8117 69.8853L111.719 54.9279C112.45 54.5068 113.049 54.8481 113.049 55.6948V85.6052C113.023 86.0655 112.889 86.5133 112.658 86.9123C112.427 87.3113 112.105 87.6502 111.719 87.9016L85.8117 102.855C85.0802 103.298 84.4818 102.934 84.4818 102.092V72.1772C84.5071 71.7174 84.6408 71.2701 84.8719 70.8718C85.103 70.4735 85.4251 70.1355 85.8117 69.8853Z" fill="#F0F0F0"/>
<path d="M85.6432 102.943C85.2485 103.109 84.8224 103.187 84.3944 103.172C83.9664 103.157 83.5469 103.048 83.1651 102.855L79.6186 100.802C79.2319 100.551 78.9099 100.212 78.6788 99.813C78.4477 99.414 78.314 98.966 78.2887 98.5056V68.582C78.3022 68.1215 78.4351 67.6723 78.6743 67.2786L84.8807 70.8606C84.6435 71.2552 84.5107 71.7038 84.495 72.1639V102.079C84.4906 102.868 84.9916 103.222 85.6432 102.943Z" fill="#E0E0E0"/>
<path d="M92.4392 76.0429L91.3221 76.6902V74.4736L94.9085 72.4033L98.8983 84.1334L99.8825 83.566V85.8269L95.968 88.0878V85.8269L97.2403 85.0954C96.9655 84.4127 96.7704 83.6635 96.5576 83.0872L91.3221 86.1106C91.1403 86.8908 90.8788 87.9104 90.6261 88.9123L91.8496 88.203V90.4639L87.9307 92.7293V90.4683L88.9149 89.9009L92.4392 76.0429ZM95.9237 81.2785C95.3917 79.6515 94.8642 77.9048 93.9997 75.3292C93.1131 79.022 92.4703 81.3849 91.9427 83.5748L95.9237 81.2785Z" fill="#37474F"/>
<path d="M109.6 78.1797V80.2322L107.104 81.673C107.104 81.9744 106.922 79.8997 106.922 80.2145C106.503 81.6211 105.582 82.8248 104.333 83.597C102.117 84.8737 100.459 83.5748 100.459 79.7534C100.459 75.9321 102.188 72.7713 104.364 71.5122C105.424 70.9005 106.408 71.0069 106.967 71.991V70.2178L109.538 68.7327V70.8295L108.416 71.4768V78.8624L109.6 78.1797ZM101.944 78.9909C101.944 81.3183 103.017 82.2626 104.409 81.4558C106.013 80.5292 106.953 78.2417 107.011 76.2247C107.073 74.0081 106.164 72.7092 104.409 73.7244C103.034 74.5179 101.944 76.6857 101.944 78.9909Z" fill="#37474F"/>
<path d="M83.1651 65.2349L79.6186 63.178C79.232 62.9278 78.91 62.5898 78.6788 62.1915C78.4477 61.7931 78.314 61.3458 78.2887 60.886V30.9712C78.314 30.5114 78.4477 30.0641 78.6788 29.6658C78.91 29.2675 79.232 28.9295 79.6186 28.6793L105.526 13.7219C105.938 13.5121 106.394 13.4027 106.856 13.4027C107.318 13.4027 107.774 13.5121 108.186 13.7219L111.732 15.7789C112.119 16.0293 112.44 16.3674 112.672 16.7656C112.903 17.1639 113.036 17.6111 113.062 18.0708V47.9856C113.036 48.4453 112.903 48.8925 112.672 49.2908C112.44 49.689 112.119 50.0271 111.732 50.2775L85.825 65.2349C85.4131 65.4447 84.9573 65.5541 84.4951 65.5541C84.0328 65.5541 83.577 65.4447 83.1651 65.2349Z" fill="#F5F5F5"/>
<path d="M85.8117 32.2656L111.719 17.3082C112.45 16.8649 113.049 17.2284 113.049 18.0707V47.9855C113.023 48.4453 112.889 48.8924 112.658 49.2907C112.427 49.6889 112.105 50.027 111.719 50.2775L85.8117 65.2349C85.0802 65.6782 84.4818 65.3147 84.4818 64.4679V34.5576C84.5067 34.0977 84.6403 33.6502 84.8715 33.2519C85.1026 32.8535 85.4248 32.5155 85.8117 32.2656Z" fill="#F0F0F0"/>
<path d="M85.6432 65.3191C85.2486 65.4847 84.8227 65.563 84.3949 65.5484C83.9672 65.5339 83.5476 65.4269 83.1651 65.2349L79.6186 63.1779C79.2317 62.928 78.9095 62.5901 78.6784 62.1917C78.4472 61.7933 78.3136 61.3459 78.2887 60.886V30.9712C78.3038 30.5109 78.4365 30.0622 78.6743 29.6678L84.8807 33.2498C84.6391 33.6522 84.5062 34.1105 84.495 34.5798V64.4901C84.4906 65.2482 84.9916 65.5984 85.6432 65.3191Z" fill="#E0E0E0"/>
<path d="M98.2289 43.8849L100.113 42.7766C100.454 42.5771 100.627 42.7766 100.627 43.1401C100.633 43.3357 100.589 43.5295 100.499 43.7032L98.4594 44.8824L99.2751 48.6151C99.3171 48.9306 99.2818 49.2517 99.1721 49.5506C99.0624 49.8494 98.8818 50.1172 98.6456 50.3307C98.2422 50.5612 98.056 50.3617 98.056 50.3617L97.032 45.7025L93.3658 47.8215L92.6476 51.2439C92.2619 53.0881 91.4108 55.6992 89.7439 56.6656C88.6223 57.3129 87.9307 56.7809 87.9307 55.0963C87.9555 53.5089 88.383 51.9537 89.1731 50.5766C89.9633 49.1995 91.0901 48.0456 92.4481 47.2231L94.545 36.8894C94.6126 36.5061 94.7135 36.1293 94.8464 35.7634L94.4297 33.8572C94.3944 33.5558 94.437 33.2504 94.5534 32.9702C94.6698 32.69 94.8562 32.4444 95.0947 32.2568C95.4937 32.0263 95.6843 32.2258 95.6843 32.2258L98.2289 43.8849ZM91.6147 51.2927L92.1733 48.5131C91.1172 49.1572 90.2458 50.0636 89.6438 51.1441C89.0417 52.2247 88.7295 53.4427 88.7376 54.6796C88.7376 55.7657 89.1809 56.0494 89.7439 55.717C90.7635 55.1451 91.3398 52.6226 91.6147 51.2927ZM93.6406 46.5138L96.8059 44.6873L95.3961 37.151L93.6406 46.5138Z" fill="#3D4695"/>
<path d="M109.343 37.2707C109.458 37.2042 109.6 37.3416 109.6 38.2948C109.6 40.7507 108.882 42.8476 107.601 43.5879C106.608 44.1598 105.978 43.8185 105.677 42.7279C105.331 44.0578 104.684 45.2725 103.85 45.7557C102.267 46.669 101.332 45.7557 101.332 42.1383C101.332 38.5209 102.6 36.4018 104.196 35.4886C104.927 35.0453 105.357 35.0852 105.601 35.3201C105.679 34.9043 105.918 34.5361 106.266 34.2961C106.665 34.0611 106.811 34.2961 106.811 34.2961V40.6532C106.811 42.3777 107.197 42.9717 107.773 42.6392C108.567 42.1959 109.103 40.733 109.103 37.5456C109.117 37.4832 109.146 37.4253 109.188 37.3773C109.23 37.3292 109.283 37.2925 109.343 37.2707ZM105.504 40.9458V37.9135C105.504 36.455 104.914 35.9319 104.324 36.2688C103.376 36.8185 102.698 37.652 102.698 41.3492C102.698 45.0464 103.318 45.1972 104.027 44.7893C104.511 44.51 105.504 42.9185 105.504 40.9458Z" fill="#3D4695"/>
<path d="M45.3461 124.688L41.7995 122.631C41.4127 122.381 41.0905 122.043 40.8593 121.644C40.6281 121.246 40.4946 120.799 40.4696 120.339V90.424C40.4957 89.9643 40.6296 89.5173 40.8607 89.1191C41.0918 88.7209 41.4134 88.3828 41.7995 88.1321L67.7068 73.1747C68.1187 72.9648 68.5745 72.8555 69.0367 72.8555C69.499 72.8555 69.9547 72.9648 70.3667 73.1747L73.9132 75.2316C74.2996 75.4821 74.6214 75.8202 74.8525 76.2184C75.0836 76.6167 75.2174 77.0638 75.2431 77.5236V107.438C75.2174 107.898 75.0836 108.345 74.8525 108.744C74.6214 109.142 74.2996 109.48 73.9132 109.73L48.0059 124.688C47.594 124.898 47.1383 125.007 46.676 125.007C46.2137 125.007 45.758 124.898 45.3461 124.688Z" fill="#F5F5F5"/>
<path d="M47.9926 91.7185L73.8999 76.7611C74.6313 76.3399 75.2298 76.6813 75.2298 77.5236V107.438C75.2041 107.898 75.0703 108.345 74.8392 108.744C74.6081 109.142 74.2863 109.48 73.8999 109.73L47.9926 124.688C47.2612 125.109 46.6627 124.768 46.6627 123.925V94.0104C46.6877 93.5505 46.8212 93.1031 47.0524 92.7047C47.2836 92.3064 47.6058 91.9684 47.9926 91.7185Z" fill="#F0F0F0"/>
<path d="M47.8242 124.772C47.4295 124.938 47.0037 125.016 46.5759 125.001C46.1481 124.987 45.7286 124.88 45.3461 124.688L41.7995 122.631C41.4127 122.381 41.0905 122.043 40.8593 121.644C40.6281 121.246 40.4946 120.799 40.4696 120.339V90.4239C40.4853 89.9638 40.618 89.5152 40.8553 89.1206L47.0617 92.7026C46.8208 93.1053 46.688 93.5634 46.676 94.0325V123.947C46.6716 124.701 47.1725 125.051 47.8242 124.772Z" fill="#E0E0E0"/>
<path d="M59.4257 106.454L53.135 110.089L52.0799 114.487L50.1116 115.622L55.2984 94.0414L57.2667 92.9021L62.4491 108.48L60.4807 109.619L59.4257 106.454ZM58.743 104.388L56.2826 96.9895L53.8222 107.23L58.743 104.388Z" fill="#37474F"/>
<path d="M71.7808 94.6443V103.112L70.0962 104.096V102.176C69.4268 104.02 68.1767 105.528 67.0728 106.166C65.14 107.283 63.7125 106.37 63.7125 103.639C63.7125 100.908 65.3483 98.0401 67.3521 96.8831C68.1916 96.403 69.1308 96.1238 70.0962 96.0674V95.6241C70.0962 93.8508 69.5687 92.2992 67.7555 93.3454C66.8689 93.8641 65.9823 94.9103 65.1888 96.0053L64.5592 94.3961C65.8582 92.6228 67.0019 91.5766 68.0038 91.0003C70.4287 89.5773 71.7808 91.1909 71.7808 94.6443ZM70.0962 99.7114V97.8406C69.2174 97.9602 68.3733 98.2622 67.6181 98.7273C66.9654 99.1442 66.4231 99.7125 66.0372 100.384C65.6513 101.056 65.4332 101.81 65.4015 102.584C65.4015 104.1 66.2882 104.512 67.4231 103.852C68.1307 103.384 68.7336 102.775 69.1937 102.062C69.6538 101.349 69.9611 100.549 70.0962 99.7114Z" fill="#37474F"/>
<path d="M45.3461 87.0637L41.7995 85.0112C41.4134 84.7605 41.0918 84.4223 40.8607 84.0241C40.6296 83.6259 40.4957 83.1789 40.4696 82.7192V52.8044C40.4946 52.3445 40.6281 51.8971 40.8593 51.4987C41.0905 51.1004 41.4127 50.7624 41.7995 50.5125L67.7068 35.5551C68.1187 35.3453 68.5745 35.2359 69.0367 35.2359C69.499 35.2359 69.9547 35.3453 70.3667 35.5551L73.9132 37.6076C74.2997 37.859 74.6215 38.1979 74.8525 38.5969C75.0836 38.9959 75.2174 39.4437 75.2431 39.904V69.8144C75.2178 70.2742 75.0841 70.7215 74.853 71.1198C74.6218 71.5181 74.2998 71.8561 73.9132 72.1063L48.0059 87.0637C47.5946 87.2756 47.1387 87.3862 46.676 87.3862C46.2133 87.3862 45.7573 87.2756 45.3461 87.0637Z" fill="#F5F5F5"/>
<path d="M47.9926 54.0944L73.8999 39.137C74.6313 38.6937 75.2298 39.0572 75.2298 39.904V69.8143C75.2045 70.2742 75.0708 70.7215 74.8396 71.1198C74.6085 71.5181 74.2865 71.8561 73.8999 72.1063L47.9926 87.0637C47.2612 87.507 46.6627 87.1435 46.6627 86.3012V56.3864C46.688 55.9266 46.8217 55.4793 47.0529 55.0809C47.284 54.6826 47.606 54.3446 47.9926 54.0944Z" fill="#F0F0F0"/>
<path d="M47.8242 87.1523C47.4295 87.3184 47.0033 87.3965 46.5753 87.3812C46.1474 87.3659 45.7279 87.2575 45.3461 87.0637L41.7995 85.0067C41.4127 84.7568 41.0905 84.4188 40.8593 84.0205C40.6281 83.6221 40.4946 83.1746 40.4696 82.7148V52.7999C40.4839 52.3409 40.6168 51.8935 40.8553 51.501L47.0617 55.083C46.8244 55.4776 46.6917 55.9262 46.676 56.3864V86.3145C46.6716 87.077 47.1725 87.4272 47.8242 87.1523Z" fill="#E0E0E0"/>
<path d="M58.539 66.0994L53.7379 68.8745L52.8956 72.3723C52.729 72.9747 52.625 73.5927 52.5853 74.2164C52.5723 74.3332 52.5905 74.4513 52.638 74.5588C52.6855 74.6663 52.7606 74.7592 52.8557 74.8282C53.0331 74.9435 53.4232 74.8637 54.0217 74.5844V75.1031L50.1116 77.3595V76.8409C50.5158 76.5313 50.8573 76.1476 51.118 75.7104C51.5737 74.6318 51.9212 73.5106 52.1553 72.3634L56.5175 54.121L56.8367 53.9393L61.159 67.3362C61.5048 68.4135 61.8195 69.0563 62.1033 69.2735C62.387 69.4907 62.7815 69.4774 63.2913 69.2336V69.7523L58.3927 72.5717V72.0486C58.7983 71.8139 59.1418 71.4856 59.3946 71.0911C59.5622 70.806 59.6524 70.482 59.6562 70.1512C59.6206 69.5544 59.4982 68.966 59.2927 68.4046L58.539 66.0994ZM58.2863 65.2127L56.1806 58.7093L54.0217 67.6776L58.2863 65.2127Z" fill="#37474F"/>
<path d="M68.8328 64.6941C67.9728 66.2146 67.4363 67.1146 67.2147 67.4027C66.9312 67.7882 66.5741 68.1136 66.164 68.3603C65.5833 68.6972 65.1045 68.6662 64.7321 68.2716C64.3597 67.8771 64.1691 67.1855 64.1691 66.188C64.1664 65.5861 64.2592 64.9876 64.444 64.4148C64.7556 63.5049 65.1944 62.6438 65.7473 61.8569C66.7059 60.5177 67.7421 59.2358 68.8505 58.0178V57.4991C68.8505 56.209 68.7175 55.4066 68.456 55.0786C68.1944 54.7505 67.8043 54.7372 67.2989 55.0298C66.8999 55.2667 66.5804 55.617 66.3813 56.0361C66.1646 56.4356 66.0461 56.8808 66.0355 57.3351V58.1419C66.0458 58.5286 65.9717 58.9128 65.8183 59.2679C65.7079 59.5472 65.5105 59.7835 65.2552 59.9417C65.176 60.0076 65.0741 60.0399 64.9714 60.0316C64.8686 60.0233 64.7732 59.9751 64.7055 59.8974C64.5308 59.6368 64.4538 59.3227 64.4883 59.0108C64.5312 58.061 64.8083 57.1366 65.2951 56.3199C65.817 55.3522 66.5984 54.5492 67.5516 54.0013C68.2964 53.558 68.9081 53.4117 69.3825 53.5226C69.584 53.59 69.764 53.7096 69.9042 53.8692C70.0444 54.0289 70.1397 54.2228 70.1805 54.4314C70.3285 55.2172 70.3835 56.0177 70.3445 56.8164V61.1963C70.3445 62.4243 70.3445 63.1691 70.3888 63.4129C70.3884 63.5815 70.4412 63.7459 70.5395 63.8828C70.5748 63.9091 70.6175 63.9233 70.6614 63.9233C70.7054 63.9233 70.7481 63.9091 70.7834 63.8828C70.8866 63.8204 70.9745 63.7356 71.0405 63.6345C71.3133 63.1636 71.5605 62.6782 71.7808 62.1805V62.9696C71.0981 64.7753 70.445 65.857 69.8214 66.2146C69.7702 66.2576 69.7109 66.29 69.6471 66.3097C69.5832 66.3295 69.5161 66.3362 69.4496 66.3296C69.383 66.323 69.3185 66.3031 69.2598 66.2712C69.2011 66.2393 69.1493 66.1959 69.1076 66.1437C68.9303 65.9531 68.8416 65.4787 68.8328 64.6941ZM68.8328 63.7764V58.8601C67.9151 59.955 67.3166 60.6998 67.0595 61.0766C66.6346 61.6601 66.2874 62.2965 66.0266 62.9696C65.8264 63.5012 65.7214 64.0639 65.7163 64.632C65.6688 65.1477 65.8072 65.6634 66.1064 66.0861C66.2084 66.2248 66.3608 66.318 66.5308 66.3453C66.7009 66.3727 66.8748 66.3321 67.0152 66.2324C67.4674 65.9752 68.0791 65.1507 68.8328 63.7764Z" fill="#37474F"/>
<path d="M177.644 26.8351C177.644 27.1069 177.564 27.3726 177.413 27.5986C177.262 27.8246 177.047 28.0007 176.796 28.1048C176.545 28.2088 176.268 28.236 176.002 28.183C175.735 28.1299 175.49 27.999 175.298 27.8069C175.106 27.6147 174.975 27.3698 174.922 27.1032C174.869 26.8366 174.896 26.5603 175 26.3092C175.104 26.0581 175.28 25.8434 175.506 25.6924C175.732 25.5414 175.998 25.4608 176.27 25.4608C176.451 25.4602 176.629 25.4954 176.796 25.5642C176.963 25.6331 177.115 25.7343 177.243 25.862C177.371 25.9898 177.472 26.1415 177.541 26.3085C177.61 26.4755 177.645 26.6545 177.644 26.8351Z" fill="#37474F"/>
<path d="M174.625 26.9105C173.716 26.3874 173.716 25.5362 174.625 25.0131C175.134 24.7532 175.698 24.6176 176.27 24.6176C176.842 24.6176 177.405 24.7532 177.915 25.0131C178.823 25.5362 178.823 26.3874 177.915 26.9105C177.405 27.1684 176.841 27.3028 176.27 27.3028C175.698 27.3028 175.135 27.1684 174.625 26.9105Z" fill="#455A64"/>
<path d="M174.576 26.4272C173.641 25.8864 173.641 25.0131 174.576 24.4722C175.102 24.2055 175.683 24.0665 176.272 24.0665C176.861 24.0665 177.442 24.2055 177.968 24.4722C178.903 25.0131 178.903 25.8864 177.968 26.4272C177.442 26.694 176.861 26.833 176.272 26.833C175.683 26.833 175.102 26.694 174.576 26.4272Z" fill="#37474F"/>
<path d="M174.523 25.9175C173.557 25.3589 173.557 24.459 174.523 23.9004C175.064 23.6252 175.663 23.4817 176.27 23.4817C176.877 23.4817 177.475 23.6252 178.017 23.9004C178.983 24.459 178.983 25.3589 178.017 25.9175C177.475 26.1927 176.877 26.3362 176.27 26.3362C175.663 26.3362 175.064 26.1927 174.523 25.9175Z" fill="#455A64"/>
<path d="M174.47 25.3898C173.477 24.818 173.477 23.887 174.47 23.3107C175.028 23.0286 175.645 22.8817 176.27 22.8817C176.895 22.8817 177.512 23.0286 178.07 23.3107C179.067 23.887 179.067 24.818 178.07 25.3898C177.512 25.674 176.896 25.8221 176.27 25.8221C175.644 25.8221 175.027 25.674 174.47 25.3898Z" fill="#37474F"/>
<path d="M174.435 24.8401C173.419 24.255 173.419 23.3018 174.435 22.7167C175.004 22.428 175.634 22.2776 176.272 22.2776C176.911 22.2776 177.54 22.428 178.11 22.7167C179.125 23.3018 179.125 24.255 178.11 24.8401C177.54 25.1287 176.911 25.2791 176.272 25.2791C175.634 25.2791 175.004 25.1287 174.435 24.8401Z" fill="#455A64"/>
<path d="M176.27 8.86761C174.54 8.86761 172.881 9.55377 171.657 10.7755C170.433 11.9972 169.743 13.6548 169.74 15.3843C169.74 20.5711 174.018 21.4356 174.018 23.5236C174.036 23.7221 174.107 23.9122 174.223 24.0743C174.339 24.2363 174.496 24.3645 174.678 24.4457C175.173 24.6944 175.719 24.8239 176.272 24.8239C176.826 24.8239 177.371 24.6944 177.866 24.4457C178.047 24.3638 178.204 24.2354 178.32 24.0735C178.436 23.9115 178.507 23.7218 178.526 23.5236C178.526 21.4356 182.804 20.5711 182.804 15.3843C182.8 13.6544 182.109 11.9968 180.884 10.7752C179.659 9.55362 178 8.86761 176.27 8.86761Z" fill="#3D4695"/>
<path opacity="0.1" d="M175.073 24.1751C174.412 23.7939 174.412 23.1732 175.073 22.792C175.444 22.6018 175.855 22.5026 176.272 22.5026C176.689 22.5026 177.1 22.6018 177.471 22.792C178.132 23.1732 178.132 23.7939 177.471 24.1751C177.099 24.3629 176.689 24.4608 176.272 24.4608C175.856 24.4608 175.445 24.3629 175.073 24.1751Z" fill="black"/>
<path d="M177.143 23.3196C177.085 23.3196 177.029 23.2969 176.988 23.2562C176.947 23.2156 176.923 23.1604 176.922 23.1024C176.924 21.8458 177.077 20.594 177.378 19.3741C177.462 19.0207 177.571 18.6739 177.706 18.3367C177.507 18.2645 177.317 18.1709 177.139 18.0575C176.808 17.8618 176.509 17.6166 176.252 17.3304C176.007 17.6091 175.722 17.8497 175.405 18.0442C175.227 18.1576 175.037 18.2512 174.838 18.3234C174.97 18.6658 175.078 19.0169 175.162 19.3741C175.455 20.5967 175.603 21.8495 175.605 23.1068C175.602 23.1648 175.576 23.2195 175.534 23.2598C175.493 23.3 175.437 23.323 175.379 23.324C175.35 23.324 175.321 23.3181 175.294 23.3067C175.267 23.2952 175.242 23.2784 175.222 23.2573C175.202 23.2362 175.186 23.2112 175.176 23.1838C175.165 23.1564 175.16 23.1272 175.162 23.0979C175.154 21.879 175.005 20.6651 174.718 19.4805C174.636 19.1282 174.526 18.7828 174.39 18.4476C174.17 18.4908 173.943 18.4804 173.727 18.4171C173.512 18.3538 173.315 18.2396 173.153 18.084C173.031 17.9674 172.954 17.8111 172.936 17.6431C172.919 17.4751 172.961 17.3061 173.056 17.1664C173.121 17.0696 173.214 16.994 173.322 16.9491C173.43 16.9042 173.548 16.8919 173.663 16.9137C174.009 16.9846 174.35 17.357 174.643 17.9289C174.824 17.8689 174.996 17.787 175.157 17.6851C175.471 17.494 175.751 17.2529 175.986 16.9713C175.851 16.7964 175.752 16.5958 175.697 16.3816C175.641 16.1675 175.629 15.9444 175.663 15.7256C175.702 15.5988 175.782 15.4879 175.889 15.4092C175.996 15.3306 176.126 15.2881 176.259 15.2881C176.392 15.2881 176.521 15.3306 176.629 15.4092C176.736 15.4879 176.815 15.5988 176.855 15.7256C176.887 15.9444 176.875 16.1673 176.819 16.3813C176.764 16.5952 176.666 16.7959 176.531 16.9713C176.773 17.2521 177.059 17.4917 177.378 17.6806C177.54 17.7809 177.712 17.8627 177.892 17.9245C178.185 17.3393 178.526 16.9802 178.877 16.9093C178.991 16.889 179.108 16.902 179.215 16.9468C179.322 16.9916 179.414 17.0663 179.479 17.162C179.575 17.3014 179.618 17.4705 179.6 17.6388C179.582 17.8071 179.505 17.9634 179.382 18.0796C179.221 18.2354 179.025 18.3499 178.811 18.4132C178.596 18.4765 178.369 18.4868 178.15 18.4431C178.012 18.7782 177.901 19.1236 177.817 19.4761C177.529 20.6605 177.38 21.8745 177.374 23.0935C177.374 23.1226 177.369 23.1515 177.359 23.1787C177.348 23.2058 177.332 23.2305 177.312 23.2515C177.292 23.2725 177.268 23.2894 177.241 23.301C177.214 23.3127 177.186 23.319 177.157 23.3196H177.143ZM173.557 17.3437C173.531 17.3457 173.505 17.354 173.483 17.3679C173.46 17.3818 173.442 17.4009 173.428 17.4235C173.322 17.5742 173.45 17.7338 173.49 17.7782C173.584 17.8666 173.696 17.9334 173.819 17.974C173.942 18.0146 174.071 18.0279 174.2 18.0131C173.965 17.5698 173.734 17.3747 173.588 17.3481L173.557 17.3437ZM178.34 18.0131C178.468 18.0279 178.598 18.0146 178.721 17.974C178.843 17.9334 178.955 17.8666 179.049 17.7782C179.1 17.7359 179.134 17.6771 179.145 17.6122C179.157 17.5473 179.145 17.4804 179.112 17.4235C179.049 17.3393 178.996 17.3393 178.952 17.3481C178.806 17.3747 178.58 17.6008 178.34 18.0131ZM176.27 15.7256C176.232 15.7191 176.194 15.7275 176.162 15.749C176.131 15.7705 176.109 15.8035 176.101 15.8409C176.069 16.0956 176.129 16.3535 176.27 16.5679C176.413 16.3544 176.473 16.0957 176.438 15.8409C176.421 15.77 176.385 15.7256 176.27 15.7256Z" fill="white"/>
<path d="M176.27 7.44011C176.152 7.44011 176.04 7.39341 175.956 7.31027C175.873 7.22713 175.827 7.11437 175.827 6.9968V4.44331C175.827 4.32574 175.873 4.21298 175.956 4.12984C176.04 4.04671 176.152 4 176.27 4C176.387 4 176.5 4.04671 176.583 4.12984C176.666 4.21298 176.713 4.32574 176.713 4.44331V6.9968C176.713 7.11437 176.666 7.22713 176.583 7.31027C176.5 7.39341 176.387 7.44011 176.27 7.44011Z" fill="#3D4695"/>
<path d="M172.24 8.52182C172.19 8.55114 172.134 8.57015 172.076 8.57776C172.018 8.58538 171.959 8.58146 171.902 8.56621C171.846 8.55096 171.793 8.5247 171.747 8.48893C171.701 8.45316 171.662 8.4086 171.633 8.3578L170.356 6.14123C170.297 6.03894 170.282 5.91749 170.312 5.80359C170.343 5.68969 170.418 5.59268 170.52 5.53389C170.622 5.4751 170.744 5.45936 170.858 5.49012C170.972 5.52088 171.069 5.59563 171.127 5.69792L172.404 7.91449C172.434 7.96508 172.453 8.02098 172.46 8.07895C172.468 8.13693 172.464 8.19584 172.449 8.25229C172.433 8.30874 172.407 8.36162 172.371 8.40788C172.336 8.45414 172.291 8.49286 172.24 8.52182Z" fill="#3D4695"/>
<path d="M169.292 11.4698C169.263 11.5206 169.224 11.5652 169.178 11.601C169.132 11.6367 169.079 11.663 169.023 11.6783C168.966 11.6935 168.907 11.6974 168.849 11.6898C168.791 11.6822 168.735 11.6632 168.685 11.6339L166.468 10.3571C166.415 10.3294 166.368 10.2913 166.331 10.245C166.293 10.1987 166.265 10.1452 166.248 10.0878C166.231 10.0304 166.226 9.97021 166.234 9.91085C166.241 9.8515 166.26 9.79422 166.29 9.74246C166.32 9.69069 166.36 9.64552 166.408 9.60965C166.456 9.57377 166.51 9.54795 166.568 9.53372C166.626 9.5195 166.687 9.51717 166.746 9.52687C166.805 9.53658 166.861 9.55812 166.912 9.59019L169.128 10.8669C169.23 10.9254 169.304 11.0216 169.334 11.1346C169.365 11.2475 169.35 11.368 169.292 11.4698Z" fill="#3D4695"/>
<path d="M168.21 15.504C168.21 15.6216 168.164 15.7343 168.081 15.8175C167.997 15.9006 167.885 15.9473 167.767 15.9473H165.214C165.096 15.9473 164.983 15.9006 164.9 15.8175C164.817 15.7343 164.77 15.6216 164.77 15.504C164.77 15.3864 164.817 15.2736 164.9 15.1905C164.983 15.1074 165.096 15.0607 165.214 15.0607H167.767C167.885 15.0607 167.997 15.1074 168.081 15.1905C168.164 15.2736 168.21 15.3864 168.21 15.504Z" fill="#3D4695"/>
<path d="M169.292 19.5337C169.35 19.6355 169.365 19.756 169.334 19.8689C169.304 19.9819 169.23 20.0781 169.128 20.1366L166.912 21.4133C166.861 21.4428 166.806 21.4621 166.748 21.47C166.69 21.478 166.631 21.4744 166.575 21.4596C166.518 21.4448 166.465 21.419 166.419 21.3836C166.373 21.3483 166.334 21.3042 166.304 21.2537C166.275 21.2031 166.256 21.1472 166.248 21.0893C166.241 21.0313 166.245 20.9724 166.26 20.9159C166.275 20.8595 166.301 20.8066 166.337 20.7603C166.373 20.7141 166.417 20.6754 166.468 20.6464L168.685 19.3697C168.735 19.3403 168.791 19.3213 168.849 19.3137C168.907 19.3061 168.966 19.31 169.023 19.3253C169.079 19.3405 169.132 19.3668 169.178 19.4025C169.224 19.4383 169.263 19.4829 169.292 19.5337Z" fill="#3D4695"/>
<path d="M183.252 19.5337C183.311 19.4323 183.407 19.3582 183.52 19.3274C183.633 19.2967 183.753 19.3119 183.855 19.3697L186.072 20.6464C186.125 20.6742 186.171 20.7123 186.209 20.7586C186.247 20.8049 186.275 20.8583 186.292 20.9157C186.308 20.9732 186.313 21.0334 186.306 21.0927C186.299 21.1521 186.28 21.2093 186.25 21.2611C186.22 21.3129 186.18 21.358 186.132 21.3939C186.084 21.4298 186.03 21.4556 185.972 21.4698C185.913 21.4841 185.853 21.4864 185.794 21.4767C185.735 21.467 185.679 21.4454 185.628 21.4134L183.412 20.1366C183.311 20.0774 183.238 19.9809 183.208 19.868C183.178 19.7551 183.194 19.635 183.252 19.5337Z" fill="#3D4695"/>
<path d="M184.329 15.504C184.329 15.3864 184.376 15.2736 184.459 15.1905C184.542 15.1074 184.655 15.0607 184.773 15.0607H187.331C187.448 15.0607 187.561 15.1074 187.644 15.1905C187.727 15.2736 187.774 15.3864 187.774 15.504C187.774 15.6216 187.727 15.7343 187.644 15.8175C187.561 15.9006 187.448 15.9473 187.331 15.9473H184.773C184.655 15.9473 184.542 15.9006 184.459 15.8175C184.376 15.7343 184.329 15.6216 184.329 15.504Z" fill="#3D4695"/>
<path d="M183.252 11.4698C183.194 11.3686 183.178 11.2485 183.208 11.1356C183.238 11.0227 183.311 10.9262 183.412 10.8669L185.628 9.59019C185.679 9.55812 185.735 9.53658 185.794 9.52687C185.853 9.51717 185.913 9.5195 185.972 9.53372C186.03 9.54795 186.084 9.57377 186.132 9.60965C186.18 9.64552 186.22 9.69069 186.25 9.74246C186.28 9.79422 186.299 9.8515 186.306 9.91085C186.313 9.97021 186.308 10.0304 186.292 10.0878C186.275 10.1452 186.247 10.1987 186.209 10.245C186.171 10.2913 186.125 10.3294 186.072 10.3571L183.855 11.6339C183.753 11.6917 183.633 11.7069 183.52 11.6761C183.407 11.6454 183.311 11.5712 183.252 11.4698Z" fill="#3D4695"/>
<path d="M180.3 8.52177C180.249 8.49244 180.205 8.45344 180.17 8.40702C180.134 8.36059 180.109 8.30765 180.094 8.25123C180.079 8.1948 180.075 8.13601 180.083 8.07822C180.091 8.02042 180.111 7.96476 180.14 7.91443L181.417 5.69786C181.478 5.60137 181.574 5.5323 181.685 5.5051C181.796 5.4779 181.914 5.49466 182.013 5.55188C182.112 5.6091 182.185 5.70236 182.217 5.81217C182.248 5.92198 182.237 6.03986 182.184 6.14117L180.907 8.35774C180.878 8.40854 180.839 8.4531 180.793 8.48887C180.747 8.52464 180.694 8.55091 180.637 8.56615C180.581 8.5814 180.522 8.58532 180.464 8.57771C180.406 8.57009 180.35 8.55108 180.3 8.52177Z" fill="#3D4695"/>
<path d="M184.764 56.874H169.07V41.5708C169.07 39.6603 169.829 37.8279 171.18 36.4769C172.531 35.126 174.364 34.367 176.274 34.367H177.555C179.466 34.367 181.298 35.126 182.649 36.4769C184 37.8279 184.759 39.6603 184.759 41.5708V56.874H184.764Z" fill="#263238"/>
<path d="M181.607 127.215V126.709C181.408 127.303 180.486 129.848 179.085 131.142C177.972 132.157 176.456 133.332 176.066 134.463C175.676 135.593 178.181 136.036 179.218 135.85C180.428 135.638 181.989 134.964 182.84 133.909C183.438 133.173 183.82 132.299 184.245 131.723C184.671 131.147 185.659 130.5 185.89 129.83C186.018 129.462 185.868 128.66 185.686 127.981C185.504 127.303 185.349 126.652 185.132 126.727V127.099C184.628 127.498 184.001 127.71 183.358 127.698C182.853 127.711 181.603 127.609 181.607 127.215Z" fill="#263238"/>
<path d="M178.079 132.02L179.085 131.134C180.065 130.247 180.809 128.726 181.235 127.693C181.48 127.106 181.606 126.477 181.607 125.84V123.819H185.132V127.099V127.188C184.963 127.924 183.358 129.87 182.428 131.142C181.807 131.994 180.654 133.08 179.236 133.266C177.892 133.443 177.214 133.026 178.079 132.02Z" fill="#FFA8A7"/>
<path d="M167.847 123.739V123.234C167.647 123.823 166.725 126.372 165.324 127.667C164.212 128.682 162.696 129.852 162.31 130.987C161.924 132.122 164.42 132.557 165.462 132.375C166.668 132.158 168.233 131.488 169.079 130.429C169.678 129.693 170.059 128.824 170.489 128.248C170.919 127.671 171.899 127.024 172.129 126.355C172.258 125.987 172.107 125.184 171.93 124.502C171.753 123.819 171.588 123.172 171.376 123.251V123.637C170.87 124.032 170.244 124.242 169.602 124.231C169.093 124.236 167.842 124.134 167.847 123.739Z" fill="#263238"/>
<path d="M164.318 128.54C164.664 128.234 165.01 127.933 165.324 127.653C166.304 126.767 167.049 125.251 167.475 124.218C167.722 123.63 167.848 122.998 167.847 122.36V120.352H171.393V123.624V123.712C171.221 124.444 169.62 126.394 168.685 127.667C168.069 128.518 166.912 129.604 165.497 129.79C164.083 129.976 163.454 129.546 164.318 128.54Z" fill="#FFA8A7"/>
<path d="M184.431 72.3944C187.167 78.3658 184.334 99.4055 184.334 99.4055C184.414 100.376 185.522 102.283 185.939 106.552C186.426 111.592 185.172 124.249 185.172 124.249C184.636 124.557 184.033 124.731 183.416 124.755C182.798 124.78 182.184 124.655 181.625 124.391C181.625 124.391 178.26 105.328 177.635 100.314C177.081 95.9388 176.022 86.3233 176.022 86.3233L173.016 100.292C173.456 101.702 173.774 103.146 173.969 104.61C174.253 107.558 171.398 121.283 171.398 121.283C171.398 121.283 170.179 121.726 167.851 121.389C167.851 121.389 166.841 103.174 166.575 99.6227C166.131 93.6601 167.709 75.0498 168.791 71.5166L184.431 72.3944Z" fill="#37474F"/>
<path d="M175.999 86.3145L175.113 80.7687C175.113 80.7687 171.358 79.9884 169.656 78.3881C170.831 79.7645 172.366 80.7868 174.089 81.3405L175.082 85.6096L173.34 98.5411L175.999 86.3145Z" fill="#263238"/>
<path d="M173.77 51.4789C172.911 51.4058 172.047 51.554 171.262 51.9095C170.476 52.2649 169.795 52.8157 169.283 53.5092L162.465 62.3755C162.465 62.3755 154.485 58.3857 154.113 57.9424C153.741 57.4991 153.94 56.5149 154.047 55.9874C154.153 55.4598 154.335 54.2939 154.45 53.9659C154.654 53.394 153.807 53.5491 153.311 54.0811C152.814 54.6131 152.588 55.6637 152.34 55.8544C152.092 56.045 150.194 53.855 149.277 52.8044C148.359 51.7537 147.924 51.0311 147.308 51.4478C146.865 51.7626 147.149 52.3877 147.809 53.2876C148.118 53.6667 148.402 54.065 148.66 54.4801C148.74 54.6397 148.496 54.7727 148.399 54.8569C148.221 55.0165 147.902 55.3002 147.88 55.5263C147.893 55.6634 147.893 55.8015 147.88 55.9386C147.791 56.2356 147.437 56.3819 147.317 56.6701C147.242 56.8829 147.317 57.1134 147.282 57.3439C147.255 57.4858 147.175 57.6143 147.149 57.7562C147.14 57.8992 147.162 58.0424 147.213 58.1762C147.265 58.31 147.344 58.4313 147.446 58.532C148.093 59.2989 148.975 59.5959 149.822 60.0614C150.527 60.4515 151.254 60.6244 152.038 60.9835C152.823 61.3426 162.261 67.8637 163.746 67.0436C165.231 66.2235 172.923 57.2907 172.923 57.2907C175.162 53.5624 173.77 51.4789 173.77 51.4789Z" fill="#FFA8A7"/>
<path d="M179.595 51.6429C183.101 51.8823 183.345 53.5758 184.223 55.4288C184.867 56.8548 184.927 58.4762 184.391 59.9462L181.944 67.0171C181.944 67.0171 183.092 69.7789 184.418 72.3944C178.287 75.8168 170.631 74.017 168.787 71.5078C168.711 70.9803 169.181 66.8397 169.474 64.1355C168.397 61.4269 168.108 59.7024 168.565 57.9291C169.412 54.6087 172.697 51.3681 174.146 51.4878L179.595 51.6429Z" fill="#3D4695"/>
<path d="M184.915 36.8849L183.851 38.5873C183.959 38.6628 184.081 38.7156 184.21 38.7424C184.339 38.7693 184.473 38.7697 184.602 38.7436C184.731 38.7175 184.854 38.6654 184.962 38.5905C185.071 38.5157 185.163 38.4195 185.234 38.308C185.374 38.0753 185.419 37.7975 185.36 37.5324C185.3 37.2674 185.141 37.0354 184.915 36.8849Z" fill="#263238"/>
<path d="M186.089 38.8267L184.099 38.5474C184.074 38.677 184.076 38.8102 184.104 38.9391C184.132 39.0679 184.187 39.1897 184.263 39.297C184.34 39.4043 184.438 39.495 184.55 39.5635C184.663 39.632 184.788 39.677 184.919 39.6956C185.189 39.7303 185.461 39.6591 185.679 39.4971C185.898 39.3351 186.044 39.0948 186.089 38.8267Z" fill="#263238"/>
<path d="M171.651 37.55C170.822 38.0421 169.798 40.1256 169.877 44.4967C169.966 48.1984 171.163 49.116 171.766 49.3732C172.369 49.6303 173.539 49.4751 174.665 49.2889V51.5055C174.665 51.5055 173.1 53.3231 173.198 54.3427C173.295 55.3623 175.454 55.6017 176.917 54.6043C177.865 53.924 178.679 53.0731 179.315 52.0951V46.7177C179.435 46.8631 179.581 46.9835 179.747 47.0718C179.913 47.1602 180.095 47.2148 180.282 47.2326C180.469 47.2503 180.658 47.2308 180.838 47.1751C181.017 47.1195 181.184 47.0288 181.328 46.9083C182.574 46.0793 182.623 44.0268 181.896 43.2909C181.169 42.555 179.608 42.7855 179.315 43.8051C179.315 43.8051 177.511 43.8716 175.113 42.5506C174.185 42.0463 173.388 41.3311 172.786 40.4625C172.185 39.594 171.796 38.5964 171.651 37.55Z" fill="#FFA8A7"/>
<path d="M174.448 43.5525C174.444 43.6148 174.452 43.6773 174.472 43.7365C174.492 43.7957 174.523 43.8503 174.565 43.8972C174.606 43.9442 174.656 43.9826 174.712 44.0101C174.768 44.0377 174.829 44.0539 174.891 44.0578C174.987 44.0657 175.083 44.0447 175.167 43.9976C175.251 43.9504 175.319 43.8794 175.362 43.7934C175.405 43.7074 175.422 43.6105 175.41 43.515C175.398 43.4196 175.357 43.3299 175.294 43.2576C175.23 43.1852 175.147 43.1335 175.054 43.109C174.961 43.0844 174.862 43.0883 174.771 43.1199C174.681 43.1516 174.601 43.2097 174.544 43.2868C174.486 43.3638 174.453 43.4563 174.448 43.5525Z" fill="#263238"/>
<path d="M173.907 46.6911L172.825 47.0369C172.845 47.1095 172.878 47.1775 172.925 47.2367C172.971 47.2958 173.029 47.3449 173.095 47.381C173.161 47.4171 173.234 47.4394 173.308 47.4465C173.383 47.4537 173.459 47.4455 173.53 47.4226C173.675 47.3729 173.796 47.269 173.866 47.1326C173.936 46.9963 173.951 46.8381 173.907 46.6911Z" fill="#F28F8F"/>
<path d="M170.626 42.1205L171.571 41.4689C171.531 41.4051 171.479 41.3501 171.418 41.3072C171.356 41.2643 171.286 41.2345 171.213 41.2195C171.139 41.2046 171.064 41.2048 170.99 41.2203C170.917 41.2357 170.847 41.266 170.786 41.3093C170.661 41.3987 170.575 41.5325 170.545 41.6833C170.516 41.834 170.545 41.9905 170.626 42.1205Z" fill="#263238"/>
<path d="M170.844 43.2155C170.84 43.3073 170.863 43.3982 170.91 43.4769C170.957 43.5555 171.027 43.6185 171.11 43.6577C171.193 43.697 171.285 43.7108 171.376 43.6975C171.467 43.6841 171.552 43.6442 171.62 43.5827C171.688 43.5213 171.737 43.441 171.76 43.3521C171.782 43.2631 171.778 43.1694 171.748 43.0828C171.718 42.9961 171.662 42.9204 171.589 42.8652C171.516 42.8099 171.427 42.7776 171.336 42.7722C171.212 42.7673 171.092 42.811 171 42.8938C170.908 42.9766 170.852 43.0921 170.844 43.2155Z" fill="#263238"/>
<path d="M173.118 42.9496L173.047 45.7513L171.571 45.2947L173.118 42.9496Z" fill="#F28F8F"/>
<path d="M174.683 49.28C175.871 49.1249 178.322 48.42 178.704 47.4492C178.55 47.9398 178.25 48.3715 177.844 48.686C177.112 49.3155 174.683 50.0159 174.683 50.0159V49.28Z" fill="#F28F8F"/>
<path opacity="0.1" d="M178.039 73.0549C178.519 72.9453 178.973 72.7407 179.374 72.4531C179.774 72.1655 180.113 71.8007 180.37 71.3802C180.628 70.9597 180.798 70.492 180.872 70.0046C180.946 69.5172 180.922 69.0199 180.801 68.542C180.778 68.4666 180.756 68.4001 180.738 68.347C180.653 68.0911 180.484 67.8713 180.259 67.7226C180.034 67.574 179.766 67.505 179.497 67.5268C179.89 67.265 180.228 66.9281 180.49 66.5356C180.753 66.143 180.935 65.7025 181.027 65.2393L181.771 60.8062C181.862 60.0844 181.798 59.3516 181.585 58.6561L184.05 55.8056L184.493 56.1248C184.867 57.3752 184.833 58.7121 184.396 59.9417L181.949 67.0126C181.949 67.0126 183.097 69.7744 184.422 72.39C182.429 73.4655 180.228 74.1012 177.969 74.2541C175.709 74.4071 173.443 74.0737 171.323 73.2766C173.555 73.629 175.834 73.5537 178.039 73.0549Z" fill="black"/>
<path d="M190.709 69.2381C187.526 56.2224 185.172 51.8868 181.302 51.9488C180.175 53.2788 180.486 57.375 182.272 59.8487C182.272 59.8487 186.262 68.2406 186.883 71.2241C187.441 73.8441 188.071 77.1424 188.031 79.3944C188.023 79.7949 187.865 80.1777 187.588 80.4672C186.865 81.2519 186.861 81.8858 186.391 82.7591C186.023 83.4418 185.619 83.6945 185.735 83.8497C185.887 84.0106 186.093 84.1089 186.314 84.1253C186.534 84.1417 186.753 84.075 186.927 83.9384C187.262 83.6851 187.561 83.3867 187.814 83.0517C187.689 83.8853 187.447 84.6971 187.096 85.4634C186.28 87.3075 186.479 88.2429 188.966 87.5913C190.522 87.179 191.498 85.8801 191.733 82.1385C191.845 80.7611 191.858 79.3773 191.773 77.998C191.458 74.4514 191.218 71.3305 190.709 69.2381Z" fill="#FFA8A7"/>
</g>
<defs>
<filter id="filter0_d" x="0" y="0" width="213.913" height="208.509" filterUnits="userSpaceOnUse" color-interpolation-filters="sRGB">
<feFlood flood-opacity="0" result="BackgroundImageFix"/>
<feColorMatrix in="SourceAlpha" type="matrix" values="0 0 0 0 0 0 0 0 0 0 0 0 0 0 0 0 0 0 127 0"/>
<feOffset dx="-4" dy="4"/>
<feGaussianBlur stdDeviation="4"/>
<feColorMatrix type="matrix" values="0 0 0 0 0 0 0 0 0 0 0 0 0 0 0 0 0 0 0.15 0"/>
<feBlend mode="normal" in2="BackgroundImageFix" result="effect1_dropShadow"/>
<feBlend mode="normal" in="SourceGraphic" in2="effect1_dropShadow" result="shape"/>
</filter>
</defs>
</svg>
