<svg width="16" height="16" viewBox="0 0 16 16" fill="none" xmlns="http://www.w3.org/2000/svg">
<path d="M7.67698 3.73888C5.49662 3.73888 3.73696 5.49854 3.73696 7.6789C3.73696 9.85926 5.49662 11.6189 7.67698 11.6189C9.85734 11.6189 11.617 9.85926 11.617 7.6789C11.617 5.49854 9.85734 3.73888 7.67698 3.73888ZM7.67698 10.2396C6.26695 10.2396 5.11626 9.08893 5.11626 7.6789C5.11626 6.26887 6.26695 5.11818 7.67698 5.11818C9.08701 5.11818 10.2377 6.26887 10.2377 7.6789C10.2377 9.08893 9.08701 10.2396 7.67698 10.2396ZM11.7784 2.65927C11.2693 2.65927 10.8582 3.07037 10.8582 3.57944C10.8582 4.08851 11.2693 4.49961 11.7784 4.49961C12.2874 4.49961 12.6985 4.09043 12.6985 3.57944C12.6987 3.45856 12.675 3.33883 12.6288 3.22712C12.5826 3.11542 12.5148 3.01392 12.4294 2.92844C12.3439 2.84296 12.2424 2.77519 12.1307 2.729C12.019 2.68281 11.8992 2.65912 11.7784 2.65927ZM15.3572 7.6789C15.3572 6.61849 15.3668 5.5677 15.3073 4.50921C15.2477 3.27976 14.9673 2.18862 14.0682 1.28958C13.1673 0.388618 12.078 0.11007 10.8486 0.050518C9.78818 -0.00903375 8.73738 0.000571397 7.6789 0.000571397C6.61849 0.000571397 5.5677 -0.00903375 4.50921 0.050518C3.27976 0.11007 2.18862 0.390539 1.28958 1.28958C0.388618 2.19054 0.11007 3.27976 0.050518 4.50921C-0.00903375 5.56962 0.000571397 6.62042 0.000571397 7.6789C0.000571397 8.73738 -0.00903375 9.7901 0.050518 10.8486C0.11007 12.078 0.390539 13.1692 1.28958 14.0682C2.19054 14.9692 3.27976 15.2477 4.50921 15.3073C5.56962 15.3668 6.62042 15.3572 7.6789 15.3572C8.7393 15.3572 9.7901 15.3668 10.8486 15.3073C12.078 15.2477 13.1692 14.9673 14.0682 14.0682C14.9692 13.1673 15.2477 12.078 15.3073 10.8486C15.3688 9.7901 15.3572 8.7393 15.3572 7.6789ZM13.6667 12.2087C13.5265 12.5583 13.3574 12.8196 13.0866 13.0885C12.8157 13.3594 12.5564 13.5284 12.2068 13.6686C11.1963 14.0701 8.79694 13.9799 7.67698 13.9799C6.55702 13.9799 4.15574 14.0701 3.14529 13.6706C2.79566 13.5303 2.5344 13.3613 2.26546 13.0904C1.99459 12.8196 1.82554 12.5602 1.68531 12.2106C1.28574 11.1982 1.37602 8.79886 1.37602 7.6789C1.37602 6.55894 1.28574 4.15766 1.68531 3.14721C1.82554 2.79758 1.99459 2.53632 2.26546 2.26738C2.53632 1.99844 2.79566 1.82746 3.14529 1.68723C4.15574 1.28766 6.55702 1.37794 7.67698 1.37794C8.79694 1.37794 11.1982 1.28766 12.2087 1.68723C12.5583 1.82746 12.8196 1.99651 13.0885 2.26738C13.3594 2.53824 13.5284 2.79758 13.6686 3.14721C14.0682 4.15766 13.9779 6.55894 13.9779 7.6789C13.9779 8.79886 14.0682 11.1982 13.6667 12.2087Z" fill="white"/>
</svg>
