<svg width="16" height="16" viewBox="0 0 16 16" fill="none" xmlns="http://www.w3.org/2000/svg">
<path d="M2.488 3.69158C3.5074 3.69158 4.33379 2.86519 4.33379 1.84579C4.33379 0.826388 3.5074 0 2.488 0C1.4686 0 0.642212 0.826388 0.642212 1.84579C0.642212 2.86519 1.4686 3.69158 2.488 3.69158Z" fill="white"/>
<path d="M6.07676 5.09024V15.3307H9.25628V10.2665C9.25628 8.93029 9.50767 7.63621 11.1645 7.63621C12.7985 7.63621 12.8188 9.16397 12.8188 10.3509V15.3315H16V9.71568C16 6.95712 15.4061 4.83716 12.1819 4.83716C10.6339 4.83716 9.59625 5.68666 9.17192 6.49061H9.12889V5.09024H6.07676ZM0.895386 5.09024H4.07997V15.3307H0.895386V5.09024Z" fill="white"/>
</svg>
