<svg width="459" height="460" viewBox="0 0 459 460" fill="none" xmlns="http://www.w3.org/2000/svg">
<path d="M112.15 105.626C102.785 105.626 93.8034 101.906 87.1812 95.2836C80.559 88.6613 76.8386 79.6796 76.8386 70.3144C76.8386 60.9491 80.559 51.9674 87.1812 45.3452C93.8034 38.7229 102.785 35.0026 112.15 35.0026V35.0026C121.516 35.0026 130.497 38.7229 137.12 45.3452C143.742 51.9674 147.462 60.9491 147.462 70.3144C147.462 79.6796 143.742 88.6613 137.12 95.2836C130.497 101.906 121.516 105.626 112.15 105.626Z" fill="#EBEBEB"/>
<path d="M103.441 62.4502H96.1334V86.0635H103.441V62.4502Z" fill="white"/>
<path d="M99.7511 59.358C100.615 59.3661 101.462 59.1174 102.184 58.6433C102.907 58.1692 103.472 57.4912 103.808 56.6953C104.145 55.8994 104.237 55.0215 104.073 54.1731C103.91 53.3247 103.498 52.5439 102.89 51.9301C102.282 51.3162 101.505 50.8969 100.658 50.7253C99.8114 50.5537 98.9327 50.6376 98.1336 50.9663C97.3345 51.2951 96.6512 51.8538 96.1702 52.5717C95.6893 53.2895 95.4325 54.134 95.4325 54.9981C95.4298 56.1481 95.8826 57.2524 96.6919 58.0695C97.5012 58.8865 98.6011 59.3498 99.7511 59.358V59.358Z" fill="white"/>
<path d="M115.129 73.6642C115.129 70.3454 116.655 68.3664 119.582 68.3664C122.262 68.3664 123.56 70.2629 123.56 73.6642V86.0326H130.827V71.1081C130.827 64.7796 127.25 61.7287 122.241 61.7287C120.82 61.7104 119.419 62.0595 118.173 62.7421C116.927 63.4247 115.879 64.4177 115.129 65.6248V62.4502H108.11V86.0532H115.129V73.6642Z" fill="white"/>
<path d="M159.47 0L164.304 8.8331L173.147 13.6774L164.304 18.5114L159.47 27.3445L154.636 18.5114L145.792 13.6774L154.636 8.8331L159.47 0Z" fill="#F5F5F5"/>
<path d="M361.126 239.514L364.755 246.152L371.382 249.77L364.755 253.398L361.126 260.035L357.498 253.398L350.871 249.77L357.498 246.152L361.126 239.514Z" fill="#EBEBEB"/>
<path d="M371.382 206.779L373.021 209.768L376.01 211.407L373.021 213.046L371.382 216.035L369.753 213.046L366.754 211.407L369.753 209.768L371.382 206.779Z" fill="#E0E0E0"/>
<path d="M124.931 3.31885L126.57 6.31819L129.559 7.94669L126.57 9.5855L124.931 12.5745L123.303 9.5855L120.303 7.94669L123.303 6.31819L124.931 3.31885Z" fill="#E0E0E0"/>
<path d="M42.908 281.247C44.8098 280.376 46.4148 278.967 47.5248 277.194C48.6348 275.421 49.2012 273.361 49.1541 271.27C49.1541 265.364 44.5675 260.623 39.0326 260.664C33.4977 260.705 29.0554 265.539 29.107 271.445C29.092 273.554 29.703 275.62 30.8625 277.381C32.0221 279.142 33.6781 280.52 35.621 281.34C20.2223 283.865 21.1293 300.624 21.1293 300.624L57.6058 300.315C57.6058 300.315 58.2345 283.36 42.908 281.247Z" fill="#E0E0E0"/>
<path d="M392.841 391.718C392.584 390.396 391.866 389.208 390.814 388.367C389.762 387.525 388.445 387.085 387.099 387.125C385.753 387.164 384.465 387.681 383.464 388.583C382.464 389.485 381.816 390.713 381.637 392.048C381.45 390.715 380.796 389.492 379.791 388.596C378.785 387.701 377.495 387.192 376.149 387.16C374.804 387.128 373.49 387.575 372.444 388.421C371.397 389.267 370.684 390.457 370.434 391.78C370.164 393.734 370.659 395.716 371.815 397.314C372.959 398.89 374.304 400.311 375.814 401.54C377.875 403.365 379.741 405.065 381.782 406.879C383.843 405.045 385.523 403.323 387.543 401.489C389.047 400.247 390.382 398.812 391.512 397.222C392.64 395.623 393.115 393.655 392.841 391.718V391.718Z" fill="#EBEBEB"/>
<path d="M416.599 174.456L420.505 173.683L426.689 160.099L425.143 152.296C425.143 152.296 431.111 150.73 432.43 161.088C433.75 171.447 433.997 168.695 433.997 168.695C433.997 168.695 446.829 166.2 448.118 167.097C449.055 167.757 451.931 180.434 453.436 187.319C453.852 188.97 453.704 190.712 453.015 192.268C452.325 193.824 451.135 195.105 449.633 195.905C449.205 196.116 448.751 196.268 448.282 196.359C445.087 196.998 428.225 197.637 428.225 197.637L421.474 198.977L416.599 174.456Z" fill="#E0E0E0"/>
<path d="M404.983 174.528L412.682 200.791L419.382 199.461L414.187 173.271L404.983 174.528Z" fill="#E0E0E0"/>
<path d="M456.569 459.105C456.569 459.26 354.355 459.373 228.3 459.373C102.245 459.373 0 459.26 0 459.105C0 458.95 102.194 458.837 228.3 458.837C354.406 458.837 456.569 458.961 456.569 459.105Z" fill="#263238"/>
<path d="M377.164 164.149C367.175 169.005 355.667 169.694 345.17 166.066C334.673 162.438 326.046 154.79 321.187 144.803V144.803C316.332 134.814 315.642 123.306 319.27 112.809C322.898 102.312 330.546 93.685 340.533 88.8257V88.8257C345.479 86.4203 350.85 85.0125 356.34 84.6829C361.83 84.3533 367.331 85.1084 372.529 86.9048C377.727 88.7013 382.52 91.5041 386.635 95.1531C390.75 98.8022 394.105 103.226 396.51 108.172V108.172C398.916 113.118 400.324 118.489 400.653 123.979C400.983 129.469 400.228 134.97 398.431 140.168C396.635 145.366 393.832 150.159 390.183 154.274C386.534 158.389 382.11 161.744 377.164 164.149V164.149Z" fill="#3D4695"/>
<path d="M348.5 135.846C348.654 135.843 348.805 135.805 348.942 135.736C349.079 135.666 349.198 135.567 349.292 135.446C349.386 135.324 349.452 135.183 349.484 135.033C349.516 134.883 349.515 134.728 349.48 134.578C349.376 134.073 349.098 132.795 348.995 132.27C348.851 131.538 348.676 131.342 347.964 131.012C346.118 130.163 344.649 128.662 343.842 126.797C340.688 120.303 342.718 112.13 350.51 108.347C357.406 104.987 363.25 107.316 365.971 112.985C369.568 120.396 369.331 128.24 364.466 130.61C363.859 130.944 363.183 131.131 362.491 131.156C361.799 131.18 361.111 131.042 360.483 130.752C359.854 130.463 359.302 130.029 358.871 129.487C358.441 128.945 358.144 128.31 358.003 127.632C357.199 124.004 356.973 119.767 355.839 117.417C354.808 115.356 352.829 114.109 350.5 115.243C347.748 116.582 346.923 120.499 348.779 124.302C349.44 125.709 350.392 126.96 351.572 127.972C351.572 127.972 354.561 141.247 355.076 143.577C356.107 148.204 359.426 152.853 359.745 153.378C359.791 153.437 359.852 153.481 359.922 153.506C359.992 153.531 360.067 153.536 360.139 153.519C360.212 153.503 360.278 153.467 360.33 153.415C360.383 153.362 360.419 153.296 360.436 153.224C360.529 152.77 361.838 147.143 360.982 142.566C360.745 141.268 359.354 134.62 359.354 134.62C361.075 135.887 364.414 136.125 367.187 134.774C375.433 130.755 377.391 120.499 372.485 110.419C368.785 102.802 358.869 98.8441 349.067 103.616C336.853 109.553 334.957 121.293 338.503 128.59C340.646 133.012 344.202 136.166 348.5 135.846Z" fill="white"/>
<path d="M418.98 282.278C415.435 280.926 412.191 278.889 409.435 276.282C406.678 273.676 404.463 270.552 402.915 267.088C401.367 263.625 400.517 259.89 400.414 256.097C400.31 252.305 400.956 248.53 402.313 244.987V244.987C403.664 241.443 405.7 238.199 408.306 235.443C410.911 232.686 414.034 230.469 417.496 228.921C420.959 227.372 424.693 226.521 428.484 226.416C432.276 226.311 436.051 226.955 439.594 228.31V228.31C443.138 229.662 446.382 231.7 449.138 234.306C451.895 236.912 454.111 240.037 455.659 243.5C457.207 246.964 458.056 250.699 458.16 254.491C458.263 258.283 457.617 262.059 456.26 265.601V265.601C454.909 269.146 452.873 272.389 450.268 275.146C447.663 277.903 444.539 280.119 441.077 281.668C437.614 283.217 433.881 284.068 430.089 284.172C426.297 284.277 422.522 283.633 418.98 282.278V282.278Z" fill="#3D4695"/>
<path fill-rule="evenodd" clip-rule="evenodd" d="M444.376 260.2C445.664 256.412 445.442 252.272 443.757 248.643C442.071 245.013 439.051 242.173 435.325 240.713C431.599 239.253 427.454 239.285 423.751 240.803C420.049 242.321 417.073 245.207 415.444 248.863C415.352 249.069 415.269 249.285 415.187 249.491C414.178 252.117 413.914 254.971 414.424 257.737L408.848 264.467L417.877 264.983C419.617 267.04 421.862 268.611 424.392 269.539C426.922 270.468 429.649 270.724 432.307 270.281C434.966 269.838 437.463 268.713 439.556 267.014C441.648 265.316 443.263 263.103 444.242 260.592C444.294 260.464 444.339 260.333 444.376 260.2V260.2ZM425.081 267.137C422.692 266.23 420.623 264.638 419.134 262.561L413.867 262.262L417.114 258.345C416.386 255.706 416.52 252.904 417.495 250.347C417.65 249.955 417.825 249.563 418.011 249.192C419.479 246.284 421.98 244.028 425.025 242.867C428.069 241.705 431.437 241.722 434.469 242.913C437.502 244.104 439.981 246.385 441.42 249.308C442.86 252.231 443.157 255.586 442.253 258.716C442.16 259.046 442.057 259.365 441.933 259.685C440.685 262.906 438.209 265.5 435.049 266.898C431.89 268.295 428.305 268.381 425.081 267.137V267.137Z" fill="white"/>
<path fill-rule="evenodd" clip-rule="evenodd" d="M435.265 260.468C434.966 260.159 433.554 258.634 433.265 258.407C432.977 258.18 432.771 258.015 432.399 258.283C432.028 258.551 431.029 259.077 430.74 259.231C430.451 259.386 430.225 259.335 429.936 259.025C429.044 258.209 428.301 257.242 427.741 256.17C427.24 255.162 426.893 254.085 426.71 252.975C426.648 252.542 426.896 252.419 427.143 252.315C427.39 252.212 427.658 252.037 427.916 251.903L428.112 251.779C428.247 251.675 428.374 251.562 428.493 251.439C428.581 251.362 428.647 251.264 428.685 251.154C428.723 251.043 428.731 250.925 428.71 250.811C428.71 250.604 428.637 248.584 428.606 247.77C428.576 246.956 428.235 246.956 428.029 246.873C427.823 246.791 427.596 246.667 427.359 246.585C427.177 246.519 426.983 246.492 426.79 246.504C426.597 246.516 426.408 246.568 426.236 246.657C425.691 246.885 425.199 247.224 424.791 247.651C424.383 248.079 424.068 248.586 423.865 249.141C423.716 249.549 423.622 249.975 423.587 250.409C423.528 251.4 423.643 252.394 423.927 253.346C424.02 253.645 424.896 258.201 427.967 261.004C431.039 263.808 431.235 263.334 431.915 263.519C432.455 263.624 433.011 263.611 433.545 263.479C434.079 263.347 434.578 263.101 435.007 262.756C435.445 262.321 435.743 261.765 435.863 261.159C435.749 260.963 435.553 260.777 435.265 260.468Z" fill="white"/>
<path d="M43.4234 148.782C37.5817 148.782 31.9793 146.461 27.8486 142.33C23.7179 138.2 21.3973 132.597 21.3973 126.756V126.756C21.3973 120.914 23.7179 115.311 27.8486 111.181C31.9793 107.05 37.5817 104.729 43.4234 104.729V104.729C46.3159 104.729 49.1801 105.299 51.8524 106.406C54.5247 107.513 56.9529 109.135 58.9982 111.181C61.0435 113.226 62.6659 115.654 63.7728 118.327C64.8798 120.999 65.4495 123.863 65.4495 126.756V126.756C65.4495 129.648 64.8798 132.512 63.7728 135.185C62.6659 137.857 61.0435 140.285 58.9982 142.33C56.9529 144.376 54.5247 145.998 51.8524 147.105C49.1801 148.212 46.3159 148.782 43.4234 148.782Z" fill="#3D4695"/>
<path d="M31.6941 134.104C33.8095 135.454 36.2546 136.197 38.7631 136.252C41.2717 136.308 43.7473 135.674 45.9204 134.419C48.0934 133.165 49.8804 131.338 51.0868 129.138C52.2931 126.938 52.8724 124.449 52.7616 121.942C53.6927 121.266 54.4985 120.432 55.1425 119.479C54.2602 119.866 53.3262 120.123 52.3699 120.242C53.3779 119.652 54.1392 118.719 54.5138 117.613C53.5598 118.181 52.513 118.575 51.4217 118.778C50.6988 117.987 49.7333 117.46 48.6774 117.278C47.6215 117.097 46.5354 117.273 45.5902 117.777C44.6451 118.282 43.8948 119.086 43.4577 120.064C43.0206 121.043 42.9215 122.138 43.1761 123.179C41.261 123.08 39.388 122.581 37.6782 121.713C35.9684 120.844 34.4599 119.627 33.2504 118.139C32.6376 119.201 32.451 120.455 32.7285 121.65C33.006 122.844 33.7268 123.888 34.745 124.57C33.979 124.551 33.2292 124.346 32.5599 123.973C32.5471 125.095 32.9261 126.187 33.6316 127.06C34.3371 127.933 35.325 128.532 36.425 128.755C35.7159 128.948 34.9719 128.976 34.2502 128.838C34.5588 129.792 35.1576 130.627 35.9631 131.226C36.7686 131.825 37.7407 132.157 38.7441 132.177C36.7363 133.716 34.2057 134.408 31.6941 134.104V134.104Z" fill="white"/>
<path d="M82.9713 395.5C73.1895 397.823 62.8855 396.168 54.3237 390.897C45.7619 385.627 39.6429 377.173 37.3113 367.393C36.1554 362.545 35.9664 357.516 36.7552 352.594C37.544 347.673 39.295 342.955 41.9083 338.711C44.5215 334.466 47.9457 330.778 51.9851 327.858C56.0244 324.938 60.5997 322.843 65.4494 321.692V321.692C70.2951 320.537 75.3208 320.348 80.2395 321.135C85.1583 321.923 89.8737 323.672 94.1166 326.282C98.3594 328.892 102.047 332.312 104.968 336.347C107.889 340.382 109.986 344.953 111.14 349.799V349.799C112.296 354.65 112.484 359.68 111.693 364.604C110.902 369.527 109.148 374.246 106.532 378.491C103.916 382.735 100.488 386.422 96.4452 389.341C92.4024 392.26 87.8238 394.353 82.9713 395.5V395.5Z" fill="#455A64"/>
<path d="M70.2629 342.017C75.6638 340.729 76.3131 340.595 78.5085 340.183C79.7933 339.894 81.118 339.828 82.4252 339.987C83.382 340.102 84.301 340.43 85.1153 340.945C85.9371 341.444 86.6405 342.116 87.1767 342.914C87.9062 344.011 88.443 345.224 88.764 346.501C89.3721 348.614 89.5473 349.253 90.8254 354.654C92.1034 360.055 92.2374 360.704 92.6497 362.899C92.9437 364.183 93.01 365.509 92.8455 366.816C92.7403 367.775 92.412 368.696 91.887 369.506C91.3948 370.33 90.7259 371.034 89.9287 371.567C88.8281 372.296 87.6118 372.833 86.3315 373.155C84.2701 373.763 83.5898 373.938 78.189 375.216C72.7881 376.494 72.1388 376.639 69.9434 377.051C68.6558 377.344 67.3268 377.411 66.0164 377.247C65.0589 377.134 64.1392 376.806 63.3263 376.288C62.5127 375.774 61.8285 375.079 61.3267 374.258C60.5907 373.163 60.0502 371.95 59.7291 370.671C59.1313 368.558 58.9561 367.929 57.6677 362.528C56.3794 357.127 56.2454 356.478 55.8331 354.283C55.55 352.994 55.4838 351.666 55.6373 350.356C55.764 349.402 56.0902 348.487 56.5945 347.668C57.0989 346.849 57.7701 346.146 58.5644 345.604C59.6598 344.87 60.873 344.33 62.1513 344.007C64.2127 343.409 64.9032 343.234 70.3041 341.945L70.2629 342.017ZM69.4383 338.296C63.9447 339.605 63.2541 339.791 61.1206 340.409C59.4512 340.824 57.865 341.521 56.4309 342.471C55.2142 343.312 54.1856 344.397 53.4102 345.657C52.6348 346.916 52.1297 348.324 51.9267 349.789C51.7102 351.507 51.7869 353.25 52.1535 354.942C52.5761 357.117 52.7101 357.818 54.0191 363.312C55.328 368.805 55.5136 369.496 56.0805 371.619C56.4928 373.289 57.1901 374.876 58.1419 376.309C58.9806 377.571 60.0896 378.631 61.3886 379.411C62.6385 380.198 64.0459 380.701 65.5114 380.885C67.2296 381.103 68.9724 381.026 70.6649 380.658C72.8396 380.246 73.5405 380.102 79.0342 378.793C84.5278 377.484 85.2184 377.298 87.3416 376.731C89.0086 376.31 90.5936 375.613 92.0313 374.67C93.2606 373.841 94.2946 372.754 95.0615 371.485C95.844 370.232 96.35 368.826 96.5457 367.362C96.7591 365.643 96.6789 363.901 96.3087 362.209C95.8964 360.024 95.7521 359.333 94.4431 353.839C93.1341 348.346 92.9486 347.655 92.3817 345.522C91.9583 343.855 91.2618 342.271 90.3203 340.832C89.4908 339.606 88.404 338.575 87.1355 337.812C85.8874 337.019 84.4795 336.513 83.0127 336.328C81.2944 336.11 79.5516 336.187 77.8592 336.555C75.6741 336.977 74.9835 337.111 69.4899 338.42" fill="white"/>
<path d="M71.7367 348.212C69.6825 348.701 67.8195 349.789 66.3833 351.337C64.9471 352.885 64.0023 354.825 63.6682 356.91C63.3341 358.995 63.6258 361.132 64.5064 363.052C65.387 364.971 66.8169 366.586 68.6154 367.693C70.4139 368.8 72.5002 369.349 74.6105 369.27C76.7208 369.191 78.7603 368.488 80.4712 367.25C82.1821 366.012 83.4875 364.295 84.2224 362.315C84.9573 360.335 85.0886 358.182 84.5999 356.128C83.9418 353.373 82.2176 350.993 79.8059 349.509C77.3941 348.025 74.492 347.558 71.7367 348.212V348.212ZM75.8595 365.352C74.5249 365.668 73.1268 365.58 71.8419 365.101C70.557 364.622 69.4429 363.773 68.6404 362.661C67.838 361.549 67.3831 360.224 67.3333 358.853C67.2835 357.483 67.6411 356.128 68.3607 354.961C69.0804 353.794 70.1299 352.866 71.3767 352.295C72.6235 351.724 74.0115 351.535 75.3655 351.753C76.7194 351.97 77.9786 352.584 78.9838 353.517C79.989 354.45 80.6951 355.659 81.013 356.993C81.2245 357.881 81.2589 358.801 81.1142 359.702C80.9695 360.602 80.6487 361.465 80.17 362.242C79.6913 363.018 79.0642 363.693 78.3245 364.226C77.5849 364.76 76.7472 365.143 75.8595 365.352" fill="white"/>
<path d="M84.8678 344.656C84.9805 345.136 84.9485 345.638 84.776 346.1C84.6034 346.561 84.2979 346.961 83.8981 347.25C83.4983 347.538 83.022 347.701 82.5295 347.719C82.037 347.737 81.5503 347.608 81.1307 347.349C80.7112 347.091 80.3777 346.714 80.1723 346.266C79.9669 345.818 79.8988 345.319 79.9766 344.832C80.0544 344.346 80.2747 343.893 80.6096 343.531C80.9444 343.17 81.3789 342.915 81.8582 342.801C82.1777 342.723 82.5095 342.709 82.8344 342.76C83.1593 342.811 83.4708 342.927 83.7508 343.099C84.0307 343.272 84.2737 343.498 84.4654 343.766C84.6572 344.033 84.794 344.335 84.8678 344.656" fill="white"/>
<path d="M370.341 362.116C368.017 362.117 365.716 361.661 363.569 360.773C361.422 359.884 359.471 358.582 357.828 356.939C356.184 355.297 354.881 353.347 353.991 351.2C353.102 349.053 352.644 346.753 352.644 344.429C352.644 342.106 353.102 339.805 353.991 337.658C354.881 335.512 356.184 333.562 357.828 331.919C359.471 330.277 361.422 328.974 363.569 328.086C365.716 327.197 368.017 326.741 370.341 326.742V326.742C372.666 326.738 374.969 327.193 377.119 328.08C379.268 328.967 381.222 330.269 382.867 331.912C384.513 333.555 385.819 335.506 386.709 337.654C387.6 339.801 388.059 342.104 388.059 344.429C388.059 346.754 387.6 349.057 386.709 351.205C385.819 353.353 384.513 355.304 382.867 356.947C381.222 358.589 379.268 359.892 377.119 360.779C374.969 361.666 372.666 362.12 370.341 362.116V362.116Z" fill="#455A64"/>
<path d="M367.641 355.117H371.949V344.367H374.948L375.278 340.76H371.949V338.698C371.949 337.853 372.124 337.513 372.98 337.513H375.319V333.761H372.33C369.125 333.761 367.682 335.173 367.682 337.884V340.77H365.383V344.367H367.62L367.641 355.117Z" fill="white"/>
<path d="M310.004 459.857L167.88 459.806C159.68 459.806 151.815 456.548 146.016 450.749C140.217 444.95 136.959 437.085 136.959 428.885L137.021 72.5922C137.021 68.5264 137.823 64.5005 139.381 60.745C140.939 56.9894 143.222 53.578 146.1 50.7059C148.978 47.8338 152.394 45.5574 156.152 44.0072C159.911 42.4569 163.938 41.6631 168.004 41.6712L310.117 41.7537C318.318 41.7537 326.183 45.0114 331.982 50.8102C337.78 56.609 341.038 64.4739 341.038 72.6747L340.976 428.885C340.983 432.954 340.187 436.985 338.632 440.745C337.078 444.506 334.797 447.923 331.92 450.801C329.042 453.678 325.625 455.959 321.864 457.513C318.104 459.068 314.073 459.864 310.004 459.857V459.857Z" fill="#263238"/>
<path d="M309.962 54.2458H282.402C280.593 54.2891 278.874 55.0459 277.621 56.3511C276.368 57.6564 275.682 59.4042 275.712 61.2133V66.2122C275.733 67.1105 275.576 68.0041 275.251 68.8417C274.926 69.6793 274.438 70.4445 273.817 71.0936C273.196 71.7427 272.452 72.2629 271.63 72.6244C270.807 72.9859 269.921 73.1816 269.023 73.2004H215.313C214.414 73.1803 213.528 72.9833 212.706 72.6207C211.883 72.2581 211.14 71.737 210.519 71.087C209.897 70.4371 209.41 69.6712 209.085 68.833C208.76 67.9948 208.603 67.1007 208.624 66.2019V61.1721C208.66 59.3584 207.977 57.6042 206.723 56.2929C205.47 54.9815 203.748 54.2196 201.935 54.1736H192.226H168.118C165.271 54.1669 162.451 54.7217 159.819 55.8064C157.187 56.8912 154.794 58.4844 152.779 60.495C150.764 62.5056 149.165 64.8939 148.074 67.5234C146.983 70.1528 146.421 72.9716 146.421 75.8184L146.349 423.587C146.349 429.327 148.63 434.833 152.689 438.892C156.748 442.951 162.253 445.232 167.994 445.232L309.839 445.314C312.681 445.314 315.496 444.754 318.122 443.666C320.748 442.579 323.134 440.984 325.144 438.975C327.154 436.965 328.748 434.579 329.836 431.952C330.924 429.326 331.483 426.512 331.483 423.669L331.556 75.8905C331.556 70.1589 329.282 64.6613 325.234 60.6036C321.186 56.5459 315.694 54.2594 309.962 54.2458Z" fill="white"/>
<path d="M312.034 82.4973C312.034 82.59 308.447 82.6931 304.036 82.724C299.625 82.7549 296.027 82.724 296.027 82.6312C296.027 82.5385 299.604 82.4251 304.026 82.3942C308.447 82.3633 312.034 82.4045 312.034 82.4973Z" fill="#263238"/>
<path d="M312.065 86.5891C312.065 86.6819 308.489 86.7849 304.067 86.8262C299.645 86.8674 296.058 86.8262 296.058 86.7231C296.058 86.62 299.645 86.5273 304.067 86.486C308.489 86.4448 312.065 86.4964 312.065 86.5891Z" fill="#263238"/>
<path d="M312.106 90.681C312.106 90.7738 308.52 90.8872 304.098 90.9181C299.676 90.949 296.1 90.9181 296.089 90.815C296.079 90.712 299.676 90.6192 304.098 90.578C308.52 90.5367 312.106 90.5883 312.106 90.681Z" fill="#263238"/>
<path d="M161.305 94.6801H161.727H162.892L167.2 94.5771L167.076 94.6905C167.076 93.7422 167.076 92.7012 167.025 91.5984C167.025 91.0212 167.025 90.4749 167.025 89.8049C167.093 89.4587 167.269 89.1431 167.529 88.904C167.788 88.6649 168.117 88.5148 168.468 88.4753C169.169 88.4753 169.777 88.4753 170.529 88.4753C170.923 88.539 171.282 88.741 171.541 89.0451C171.8 89.3492 171.942 89.7355 171.941 90.1348C171.941 91.5983 171.941 93.1135 171.993 94.6905L171.797 94.4946H177.229L177.023 94.7008C177.023 92.5157 177.023 90.2481 176.961 87.9291C176.961 87.3519 176.961 86.785 176.961 86.2078C176.937 85.9513 176.857 85.7033 176.725 85.4821C176.593 85.2609 176.413 85.0721 176.198 84.9297L173.828 82.5797L171.529 80.3225L170.426 79.2299C170.045 78.8589 169.746 78.4775 169.303 78.3848C169.09 78.3289 168.868 78.3211 168.652 78.3622C168.437 78.4032 168.233 78.4919 168.056 78.6218C167.726 78.9001 167.375 79.2918 167.025 79.6525L165.067 81.6212C163.84 82.8889 162.562 84.0536 161.634 85.1565C161.359 85.8064 161.266 86.5192 161.366 87.2179C161.366 87.8878 161.366 88.5269 161.366 89.1247C161.366 90.2997 161.366 91.3304 161.366 92.2168C161.366 93.1032 161.366 93.6494 161.366 94.1854C161.381 94.4222 161.381 94.6598 161.366 94.8966C161.354 94.6803 161.354 94.4635 161.366 94.2473C161.366 93.7216 161.366 93.0723 161.366 92.2992C161.366 91.5262 161.366 90.3718 161.294 89.2071C161.294 88.5887 161.294 87.9394 161.294 87.2488C161.294 86.8984 161.294 86.5479 161.294 86.2181C161.292 85.8204 161.395 85.4291 161.593 85.0843C162.624 83.8578 163.799 82.7652 165.036 81.4563L166.973 79.467C167.324 79.1269 167.602 78.7867 168.004 78.4363C168.226 78.2674 168.483 78.1509 168.756 78.0956C169.029 78.0402 169.311 78.0475 169.581 78.1168C170.094 78.3052 170.547 78.6294 170.89 79.0547L172.003 80.1473L174.302 82.4045L176.683 84.7339C176.906 84.9341 177.109 85.155 177.291 85.3935C177.469 85.6671 177.569 85.9844 177.579 86.3109C177.579 86.888 177.579 87.4652 177.579 88.0424C177.579 90.3615 177.579 92.629 177.631 94.8141V95.0203H177.425H171.993H171.612V94.8244C171.612 93.2475 171.612 91.7323 171.612 90.2687C171.618 89.9543 171.512 89.6479 171.311 89.4056C171.11 89.1633 170.829 89.0014 170.519 88.9495C169.89 88.9495 169.148 88.9495 168.54 88.9495C168.262 88.9772 168 89.0918 167.791 89.2767C167.582 89.4617 167.437 89.7078 167.375 89.9802C167.375 90.5264 167.375 91.1552 167.375 91.7117C167.375 92.8352 167.375 93.8865 167.375 94.8038V94.9275H167.252H162.871H161.727C161.578 94.8599 161.436 94.777 161.305 94.6801Z" fill="#263238"/>
<path d="M255.098 366.435C254.604 366.512 254.104 366.547 253.604 366.538L249.543 366.62C246.121 366.672 241.38 366.703 236.144 366.703C230.908 366.703 226.167 366.703 222.745 366.62L218.684 366.538C218.184 366.546 217.684 366.512 217.189 366.435C217.683 366.351 218.183 366.317 218.684 366.332L222.745 366.239C226.167 366.239 230.908 366.167 236.144 366.167C241.38 366.167 246.111 366.167 249.543 366.239L253.604 366.332C254.104 366.316 254.605 366.35 255.098 366.435V366.435Z" fill="#455A64"/>
<path d="M314.642 375.752C314.642 375.907 292.822 376.02 265.91 376.02C238.999 376.02 217.179 375.907 217.179 375.752C217.179 375.598 238.999 375.484 265.91 375.484C292.822 375.484 314.642 375.608 314.642 375.752Z" fill="#455A64"/>
<path d="M284.185 384.565C284.185 384.719 269.188 384.833 250.687 384.833C232.186 384.833 217.179 384.719 217.179 384.565C217.179 384.41 232.176 384.297 250.687 384.297C269.198 384.297 284.185 384.379 284.185 384.565Z" fill="#455A64"/>
<path d="M316.569 401.602L313.539 398.561L310.653 401.437V392.738H316.559L316.569 401.602ZM313.539 398.18L313.632 398.273L316.301 400.953V393.016H310.931V400.798L313.539 398.18Z" fill="#263238"/>
<path d="M235.938 400.468L234.907 399.994C234.291 400.284 233.59 400.333 232.94 400.133C232.29 399.933 231.738 399.497 231.392 398.912C231.046 398.326 230.931 397.633 231.07 396.967C231.208 396.301 231.59 395.711 232.141 395.311C232.691 394.912 233.371 394.733 234.047 394.808C234.723 394.884 235.347 395.209 235.796 395.72C236.245 396.23 236.487 396.89 236.475 397.57C236.463 398.25 236.198 398.902 235.731 399.396L235.938 400.468ZM233.454 394.676C232.749 394.725 232.089 395.041 231.61 395.56C231.131 396.079 230.867 396.761 230.874 397.467C230.88 398.174 231.156 398.851 231.645 399.361C232.134 399.871 232.8 400.175 233.505 400.211C233.976 400.178 234.432 400.033 234.835 399.788V399.788L235.628 400.138L235.443 399.365C235.806 398.969 236.046 398.474 236.132 397.943C236.219 397.412 236.148 396.867 235.929 396.376C235.71 395.884 235.352 395.467 234.9 395.176C234.447 394.885 233.92 394.733 233.381 394.738L233.454 394.676Z" fill="#263238"/>
<path d="M242.802 400.025L241.586 397.036L239.287 394.975H244.853L242.802 400.025ZM239.803 395.15L241.761 396.943L242.792 399.489L244.544 395.109L239.803 395.15Z" fill="#263238"/>
<path d="M244.737 394.907L241.696 396.886L241.808 397.059L244.849 395.08L244.737 394.907Z" fill="#263238"/>
<path d="M227.166 395.552C227.084 395.154 226.864 394.798 226.545 394.547C226.226 394.296 225.829 394.166 225.423 394.179C225.017 394.193 224.629 394.35 224.328 394.621C224.026 394.893 223.831 395.263 223.775 395.665C223.72 395.258 223.52 394.885 223.213 394.612C222.906 394.339 222.512 394.185 222.101 394.177C221.69 394.17 221.291 394.309 220.974 394.571C220.657 394.833 220.444 395.199 220.374 395.603C220.295 396.197 220.446 396.798 220.797 397.284C221.145 397.761 221.554 398.19 222.013 398.562C222.642 399.108 223.208 399.592 223.827 400.169C224.445 399.613 224.961 399.087 225.579 398.531C226.032 398.152 226.434 397.715 226.775 397.232C227.119 396.745 227.26 396.142 227.166 395.552V395.552Z" fill="#3D4695"/>
<path d="M322.774 409.301C322.774 409.301 322.774 408.961 322.774 408.333C322.774 407.704 322.774 406.745 322.774 405.508C322.774 403.024 322.774 399.324 322.722 394.624C322.722 385.152 322.671 371.372 322.63 354.087L322.805 354.262L157.986 354.355L158.254 354.087C158.254 373.278 158.254 391.883 158.254 409.301L157.996 409.044L275.939 409.157L310.364 409.229H319.641H322.032H322.856H322.063H319.703H310.519L276.145 409.301L158.027 409.425H157.759V409.301C157.759 391.883 157.759 373.278 157.759 354.087V353.819H158.048L322.867 353.912H323.042V354.087C323.042 371.413 322.97 385.235 322.949 394.738C322.949 399.458 322.949 403.097 322.949 405.581C322.949 406.797 322.949 407.724 322.949 408.363C322.949 409.003 322.774 409.301 322.774 409.301Z" fill="#263238"/>
<path d="M164.811 363.318L164.601 399.825L210.26 400.088L210.47 363.581L164.811 363.318Z" fill="#EBEBEB"/>
<path d="M210.459 363.559H209.583H207.088H197.719L164.737 363.487L164.984 363.25C164.933 374.124 164.871 386.574 164.809 399.747C164.861 399.819 164.304 399.242 164.541 399.479H167.685H170.777H176.961L188.814 399.551L210.191 399.706L209.974 399.932C210.077 388.966 210.17 379.875 210.242 373.485C210.242 370.31 210.314 367.816 210.335 366.074C210.335 365.239 210.335 364.59 210.335 364.115C210.335 363.641 210.335 363.425 210.335 363.425C210.335 363.425 210.335 363.631 210.335 364.064C210.335 364.497 210.335 365.167 210.335 365.991C210.335 367.713 210.335 370.197 210.335 373.351C210.335 379.772 210.335 388.914 210.335 399.932V400.149H210.108L188.732 400.066L176.879 400.004H170.694H167.602H164.459L164.18 399.726C164.273 386.543 164.345 374.093 164.417 363.229V362.982H164.665L197.75 363.281L207.027 363.404H209.469H210.088L210.459 363.559Z" fill="#263238"/>
<path d="M166.375 365.626L166.191 397.536L208.645 397.781L208.828 365.871L166.375 365.626Z" fill="#E0E0E0"/>
<path d="M166.169 397.51L181.115 377.762L190.226 390.223L196.493 383.627L208.624 397.758L166.169 397.51Z" fill="#F5F5F5"/>
<path d="M194.215 375.412C194.213 376.075 194.014 376.722 193.644 377.272C193.274 377.822 192.748 378.25 192.135 378.501C191.522 378.753 190.847 378.816 190.198 378.684C189.548 378.552 188.952 378.23 188.485 377.759C188.019 377.288 187.702 376.69 187.576 376.039C187.45 375.388 187.52 374.714 187.777 374.103C188.034 373.492 188.467 372.971 189.02 372.606C189.573 372.241 190.223 372.048 190.886 372.052C191.325 372.053 191.76 372.141 192.165 372.311C192.571 372.481 192.938 372.729 193.248 373.041C193.557 373.353 193.802 373.723 193.968 374.13C194.133 374.537 194.218 374.973 194.215 375.412V375.412Z" fill="#F5F5F5"/>
<path d="M241.792 126.756C241.628 126.783 241.461 126.783 241.297 126.756L239.906 126.807L234.752 126.9C230.413 126.9 224.445 126.972 217.787 126.972C211.129 126.972 205.161 126.972 200.822 126.9L195.668 126.807L194.266 126.756C194.106 126.784 193.942 126.784 193.782 126.756C193.94 126.716 194.103 126.699 194.266 126.704H195.668L200.822 126.622C205.161 126.57 211.129 126.539 217.787 126.539C224.445 126.539 230.413 126.539 234.752 126.622L239.906 126.704H241.297C241.464 126.7 241.63 126.717 241.792 126.756Z" fill="#263238"/>
<path d="M309.241 328.546L304.747 324.032L300.449 328.309V315.384H309.231L309.241 328.546ZM304.747 323.475L304.881 323.609L308.849 327.588V315.796H300.851V327.361L304.747 323.475Z" fill="#263238"/>
<path d="M194.978 327.186L192.916 326.248C191.716 326.806 190.35 326.896 189.087 326.501C187.823 326.106 186.752 325.254 186.084 324.112C185.415 322.969 185.196 321.618 185.47 320.323C185.745 319.028 186.492 317.882 187.567 317.109C188.641 316.335 189.965 315.99 191.281 316.142C192.596 316.293 193.807 316.929 194.678 317.926C195.549 318.923 196.017 320.209 195.991 321.532C195.964 322.856 195.445 324.122 194.534 325.083L194.978 327.186ZM190.061 315.796C189.346 315.802 188.64 315.949 187.982 316.228C187.324 316.507 186.728 316.913 186.227 317.423C185.725 317.933 185.33 318.536 185.062 319.199C184.794 319.861 184.659 320.57 184.665 321.285C184.671 321.999 184.818 322.706 185.097 323.364C185.376 324.022 185.782 324.618 186.292 325.119C186.802 325.62 187.405 326.016 188.068 326.284C188.73 326.552 189.439 326.687 190.154 326.68C191.081 326.625 191.98 326.341 192.772 325.856L192.865 325.804L194.411 326.495L194.06 324.97L194.132 324.897C194.848 324.116 195.32 323.142 195.49 322.096C195.659 321.05 195.519 319.977 195.086 319.01C194.653 318.042 193.947 317.223 193.054 316.652C192.161 316.081 191.121 315.783 190.061 315.796V315.796Z" fill="#263238"/>
<path d="M208.5 326.289L206.089 320.403L201.574 316.281L212.541 316.198L208.5 326.289ZM202.594 316.672L206.449 320.208L208.511 325.217L211.953 316.6L202.594 316.672Z" fill="#263238"/>
<path d="M212.323 316.18L206.344 320.07L206.563 320.407L212.542 316.517L212.323 316.18Z" fill="#263238"/>
<path d="M177.724 317.569C177.568 316.78 177.137 316.072 176.507 315.571C175.878 315.071 175.091 314.81 174.287 314.836C173.483 314.862 172.715 315.173 172.119 315.713C171.523 316.254 171.139 316.988 171.034 317.785C170.916 316.991 170.52 316.265 169.916 315.735C169.313 315.206 168.541 314.908 167.738 314.894C166.935 314.881 166.153 315.152 165.532 315.661C164.911 316.17 164.49 316.882 164.345 317.672C164.19 318.838 164.489 320.019 165.18 320.97C165.872 321.909 166.678 322.758 167.582 323.496C168.808 324.526 169.932 325.557 171.158 326.66C172.354 325.567 173.384 324.537 174.59 323.434C175.481 322.684 176.274 321.825 176.951 320.878C177.621 319.914 177.898 318.73 177.724 317.569V317.569Z" fill="#3D4695"/>
<path d="M176.724 134.197C180.834 134.197 184.166 130.865 184.166 126.756C184.166 122.646 180.834 119.314 176.724 119.314C172.614 119.314 169.282 122.646 169.282 126.756C169.282 130.865 172.614 134.197 176.724 134.197Z" fill="#EBEBEB"/>
<path d="M306.437 285.875C306.437 286.03 275.248 286.153 236.783 286.153C198.317 286.153 167.118 286.03 167.118 285.875C167.118 285.72 198.307 285.607 236.783 285.607C275.259 285.607 306.437 285.731 306.437 285.875Z" fill="#455A64"/>
<path d="M306.437 274.28C306.437 274.424 275.248 274.548 236.783 274.548C198.317 274.548 167.118 274.424 167.118 274.28C167.118 274.135 198.307 274.012 236.783 274.012C275.259 274.012 306.437 274.135 306.437 274.28Z" fill="#455A64"/>
<path d="M242.946 297.635C242.946 297.78 225.971 297.903 205.037 297.903C184.104 297.903 167.118 297.78 167.118 297.635C167.118 297.491 184.093 297.367 205.037 297.367C225.981 297.367 242.946 297.491 242.946 297.635Z" fill="#455A64"/>
<path d="M233.598 424.03C233.588 424.616 233.404 425.185 233.071 425.667C232.738 426.149 232.27 426.521 231.725 426.737C231.181 426.954 230.585 427.004 230.012 426.882C229.439 426.76 228.915 426.471 228.506 426.052C228.097 425.633 227.821 425.102 227.712 424.526C227.604 423.951 227.669 423.356 227.898 422.817C228.128 422.278 228.511 421.819 229.001 421.497C229.491 421.176 230.064 421.006 230.65 421.01C231.042 421.014 231.43 421.096 231.79 421.25C232.151 421.404 232.477 421.628 232.751 421.908C233.025 422.189 233.241 422.521 233.386 422.885C233.531 423.249 233.603 423.638 233.598 424.03V424.03Z" fill="#263238"/>
<path d="M242.73 424.071C242.718 424.654 242.534 425.22 242.201 425.699C241.868 426.177 241.401 426.547 240.859 426.761C240.317 426.975 239.724 427.024 239.154 426.902C238.584 426.78 238.063 426.493 237.656 426.076C237.249 425.659 236.974 425.131 236.866 424.558C236.758 423.985 236.821 423.393 237.048 422.857C237.275 422.32 237.656 421.862 238.142 421.541C238.629 421.22 239.199 421.05 239.782 421.051C240.175 421.054 240.563 421.135 240.924 421.288C241.285 421.442 241.612 421.665 241.886 421.946C242.16 422.227 242.376 422.56 242.521 422.924C242.666 423.289 242.737 423.679 242.73 424.071V424.071Z" fill="#263238"/>
<path d="M251.934 424.113C251.922 424.695 251.738 425.261 251.405 425.74C251.072 426.218 250.605 426.588 250.063 426.802C249.521 427.016 248.928 427.065 248.358 426.943C247.788 426.822 247.267 426.534 246.86 426.117C246.453 425.7 246.178 425.172 246.07 424.599C245.962 424.026 246.025 423.435 246.252 422.898C246.48 422.361 246.86 421.903 247.347 421.582C247.833 421.261 248.403 421.091 248.986 421.093C249.378 421.097 249.766 421.178 250.126 421.332C250.487 421.486 250.813 421.71 251.087 421.991C251.361 422.271 251.577 422.603 251.722 422.967C251.867 423.331 251.939 423.721 251.934 424.113V424.113Z" fill="#263238"/>
<path d="M323.764 141.474H158.924V242.276H323.764V141.474Z" fill="#E0E0E0"/>
<path d="M174.147 242.307L221.374 179.084L250.666 218.622L270.507 197.472L309.437 242.266L174.147 242.307Z" fill="#F5F5F5"/>
<path d="M263.076 171.323C263.078 173.431 262.455 175.493 261.285 177.247C260.115 179.001 258.451 180.368 256.504 181.177C254.557 181.985 252.414 182.197 250.346 181.787C248.278 181.377 246.378 180.363 244.886 178.873C243.395 177.383 242.379 175.484 241.967 173.416C241.554 171.349 241.765 169.205 242.571 167.257C243.378 165.309 244.744 163.644 246.496 162.473C248.249 161.301 250.31 160.676 252.418 160.676C255.243 160.676 257.952 161.797 259.951 163.794C261.949 165.79 263.073 168.498 263.076 171.323Z" fill="#F5F5F5"/>
<path d="M323.32 335.967C323.32 333.813 323.217 242.751 323.073 107.935L323.32 108.182H158.501L158.769 107.914C158.769 193.194 158.769 272.115 158.769 335.946L158.542 335.73L323.382 335.946L158.542 336.173H158.326V335.946C158.326 272.115 158.326 193.194 158.274 107.914V107.646H158.563H323.382H323.63V107.883C323.578 175.363 323.537 232.392 323.506 272.569C323.506 292.626 323.454 308.468 323.444 319.311C323.444 324.712 323.444 328.866 323.444 331.679C323.444 333.071 323.444 334.132 323.444 334.854C323.444 335.575 323.32 335.967 323.32 335.967Z" fill="#263238"/>
<path d="M245.822 364.26L249.471 352.005C250.11 349.346 250.955 346.212 252.089 342.636C253.119 339.42 255.737 336.039 258.129 333.607C261.849 329.824 263.622 329.803 266.116 327.794C266.343 327.649 266.601 327.433 266.817 327.319C267.289 327.063 267.703 326.712 268.034 326.289C270.188 323.959 268.116 320.342 263.736 320.692C260.448 320.95 255.067 321.888 246.327 330.906C246.214 331.051 246.1 331.164 245.997 331.298C241.411 337.266 237.102 320.239 236.319 313.9C236.167 312.917 235.796 311.982 235.233 311.162C234.671 310.343 233.931 309.66 233.069 309.165C232.207 308.67 231.244 308.376 230.253 308.303C229.261 308.231 228.266 308.382 227.342 308.746L206.047 318.703C204.016 318.114 201.85 318.186 199.863 318.909C198.373 319.432 197.131 320.492 196.38 321.881C195.629 323.27 195.423 324.89 195.802 326.423L204.45 360.858L179.084 445.273H233.763L245.822 364.26Z" fill="#FFBE9D"/>
<path d="M287.875 286.73L270.971 319.857L262.519 317.507L220.055 352.067C218.321 353.485 216.103 354.17 213.872 353.978C211.641 353.785 209.573 352.73 208.109 351.036L191.927 332.246C191.927 332.246 224.548 318.198 230.578 306.571C236.608 294.945 229.64 292.296 229.64 292.296L244.987 274.857L287.875 286.73Z" fill="#3D4695"/>
<path d="M265.952 219.075C265.952 219.075 241.215 213.602 206.387 180.125C171.56 146.648 155.213 102.153 150.998 102.4C146.782 102.647 128.126 93.9792 92.7321 170.962C57.3379 247.945 71.2832 265.787 78.3023 265.684C85.3214 265.58 133.156 252.212 163.026 255.603C192.896 258.994 231.289 274.568 231.289 274.568L265.952 219.075Z" fill="#3D4695"/>
<path d="M318.507 261.035L310.066 277.083L306.283 284.298C303.786 289.047 299.562 292.657 294.482 294.383C289.402 296.109 283.853 295.82 278.98 293.574L225.95 275.094L256.871 204.594L309.849 232.825C314.723 235.433 318.368 239.862 319.99 245.146C321.612 250.431 321.079 256.142 318.507 261.035Z" fill="#3D4695"/>
<g opacity="0.4">
<path opacity="0.4" d="M318.507 261.035L310.066 277.083L306.283 284.298C303.786 289.047 299.562 292.657 294.482 294.383C289.402 296.109 283.853 295.82 278.98 293.574L225.95 275.094L256.871 204.594L309.849 232.825C314.723 235.433 318.368 239.862 319.99 245.146C321.612 250.431 321.079 256.142 318.507 261.035Z" fill="black"/>
</g>
<path d="M95.5562 172.364C76.7253 214.066 68.8817 251.233 78.0343 255.366C87.1869 259.499 109.893 229.052 128.724 187.34C147.555 145.628 155.399 108.481 146.246 104.338C137.093 100.194 114.387 130.662 95.5562 172.364Z" fill="#3D4695"/>
<g opacity="0.5">
<path opacity="0.5" d="M95.5562 172.364C76.7253 214.066 68.8817 251.233 78.0343 255.366C87.1869 259.499 109.893 229.052 128.724 187.34C147.555 145.628 155.399 108.481 146.246 104.338C137.093 100.194 114.387 130.662 95.5562 172.364Z" fill="black"/>
</g>
<path d="M323.063 284.226L308.684 279.711L317.579 262.808L328.36 269.508L323.063 284.226Z" fill="#3D4695"/>
<g opacity="0.6">
<path opacity="0.6" d="M317.579 262.808L308.684 279.711L311.642 280.639L318.868 263.602L317.579 262.808Z" fill="black"/>
</g>
<path d="M307.664 266.704C307.458 267.168 300.284 264.385 291.647 260.52C283.01 256.655 276.186 253.068 276.382 252.604C276.578 252.14 283.762 254.933 292.41 258.84C301.057 262.746 307.88 266.24 307.664 266.704Z" fill="#3D4695"/>
<path d="M312.096 256.634C311.869 257.088 305.376 254.356 297.594 250.522C289.812 246.688 283.69 243.214 283.917 242.751C284.143 242.287 290.626 245.028 298.408 248.863C306.19 252.697 312.323 256.17 312.096 256.634Z" fill="#3D4695"/>
<path d="M302.098 277.269C302.026 277.516 300.315 277.124 297.594 276.238C296.234 275.815 294.615 275.279 292.832 274.671C291.049 274.063 289.225 273.094 287.256 272.198C279.392 268.549 273.383 264.983 273.579 264.55C273.775 264.117 280.237 266.91 288.009 270.528C289.967 271.414 291.781 272.383 293.492 273.094C295.203 273.806 296.739 274.434 298.027 275.011C300.604 276.197 302.17 277.021 302.098 277.269Z" fill="#3D4695"/>
<path d="M133.95 163.098C133.95 163.098 112.449 149.761 100.689 178.816C88.9288 207.872 111.542 212.644 111.542 212.644C121.308 197.266 128.851 180.586 133.95 163.098V163.098Z" fill="#3D4695"/>
<g opacity="0.5">
<path opacity="0.5" d="M156.821 128.466C156.955 128.466 156.646 130.466 155.986 134.022C155.327 137.578 154.337 142.721 152.956 149.05L149.967 159.223C149.424 161.043 148.864 162.93 148.287 164.881L147.411 167.839C147.091 168.87 146.669 169.808 146.298 170.808L141.443 183.341C141.02 184.433 140.588 185.526 140.165 186.629C139.742 187.732 139.134 188.783 138.65 189.876L135.455 196.472L132.249 203.058C131.703 204.089 131.218 205.243 130.631 206.253C130.043 207.263 129.425 208.315 128.838 209.294L121.983 220.869C121.427 221.776 120.953 222.714 120.334 223.579L118.551 226.105L115.129 230.928L108.945 239.555C104.822 244.534 101.38 248.461 99.0091 251.192C97.8447 252.671 96.5587 254.05 95.1646 255.315C96.1335 253.706 97.2369 252.182 98.4628 250.759C100.751 247.842 103.977 243.761 107.935 238.741L113.861 230.052L117.18 225.218C117.758 224.394 118.335 223.549 118.922 222.693C119.51 221.838 119.953 220.9 120.52 219.982L127.291 208.418L129.054 205.388C129.662 204.357 130.085 203.326 130.652 202.213L133.826 195.668C134.857 193.452 135.96 191.277 137.011 189.123C137.506 188.092 138.104 187 138.516 185.907L139.804 182.65L144.731 170.282C145.112 169.251 145.545 168.334 145.875 167.344C146.205 166.355 146.483 165.386 146.782 164.417L148.534 158.821L151.698 148.771L155.275 133.929C155.634 132.068 156.151 130.24 156.821 128.466V128.466Z" fill="black"/>
</g>
<g opacity="0.4">
<path opacity="0.4" d="M197.06 329.937C199.028 333.504 201.028 337.152 203.924 339.966C206.82 342.78 210.778 344.78 214.901 344.367C219.024 343.955 222.786 340.595 222.827 336.534C224.765 337.987 227.744 337.204 229.351 335.38C230.959 333.555 231.485 331.03 231.67 328.608C234.309 330.164 237.978 328.938 239.741 326.433C240.55 325.128 241.062 323.662 241.24 322.137C241.418 320.612 241.258 319.066 240.772 317.61C239.767 314.712 238.34 311.979 236.535 309.499C238.597 309.664 240.72 309.808 242.534 308.891C244.348 307.973 245.626 305.561 244.523 303.83C243.799 302.863 242.747 302.193 241.565 301.944C238.38 300.913 236.154 300.15 232.835 300.532C232.072 300.532 234.165 309.272 213.376 321.207C201.038 328.268 197.06 329.937 197.06 329.937Z" fill="black"/>
</g>
<path d="M243.874 342.512C243.874 342.605 242.483 342.337 240.236 342.399C237.316 342.468 234.444 343.158 231.81 344.421C229.177 345.684 226.842 347.493 224.961 349.727C223.507 351.438 222.899 352.685 222.765 352.633C222.851 352.312 222.987 352.006 223.167 351.727C223.609 350.941 224.108 350.19 224.662 349.48C226.515 347.128 228.882 345.233 231.582 343.939C234.282 342.645 237.242 341.988 240.236 342.017C241.134 342.023 242.031 342.106 242.915 342.265C243.247 342.29 243.572 342.374 243.874 342.512V342.512Z" fill="#EB996E"/>
<path d="M198.41 324.361C201.76 327.577 204.048 331.133 207.562 334.369C209.16 335.843 211.685 338.626 213.747 338.997C215.808 339.368 217.251 339.09 218.096 337.091C218.787 335.472 217.55 333.256 216.705 331.937C214.468 328.422 212.324 325.681 210.655 322.949C209.861 321.671 210.881 321.403 211.252 322.001C212.86 323.671 215.272 325.093 216.715 326.938C218.694 329.422 219.044 332.731 224.219 331.679C224.911 331.567 225.567 331.296 226.136 330.886C228.084 329.391 228.197 326.763 227.352 324.702C226.622 323.11 225.648 321.643 224.466 320.352C226.672 322.836 229.073 325.505 232.577 325.732C233.567 325.852 234.57 325.662 235.447 325.187C236.324 324.713 237.032 323.978 237.473 323.083C238.504 320.733 237.03 318.455 235.536 316.621C232.89 313.359 229.947 310.35 226.744 307.633C225.548 306.628 224.039 306.071 222.477 306.056C220.663 306.056 218.354 306.386 217.323 307.953C216.734 308.708 216.306 309.576 216.063 310.503C215.82 311.429 215.768 312.396 215.911 313.343C215.911 313.343 211.376 311.045 207.727 313.446C205.481 315.024 203.867 317.346 203.172 320.002L198.41 324.361Z" fill="#FFBE9D"/>
<path d="M222.58 305.067C221.854 304.224 221.404 303.18 221.29 302.075C221.176 300.969 221.403 299.855 221.941 298.882C222.714 297.367 223.683 295.893 224.672 295.564C228.991 294.11 247.873 297.378 247.698 301.562C247.523 305.747 246.142 307.746 235.907 306.273C234.103 306.015 231.279 305.664 231.279 305.664L228.805 309.375L222.58 305.067Z" fill="#FFBE9D"/>
<path d="M225.96 322.609C223.482 318.523 219.869 315.246 215.561 313.178C216.263 313.291 216.94 313.529 217.56 313.879C220.663 315.379 223.268 317.741 225.064 320.682C225.479 321.263 225.784 321.917 225.96 322.609Z" fill="#EB996E"/>
<path d="M229.135 309.736C229.042 309.818 227.795 308.808 226.094 307.767C225.383 307.317 224.647 306.907 223.889 306.54C223.301 306.273 222.909 306.2 222.92 306.118C222.93 306.035 223.363 305.994 224.012 306.19C224.848 306.459 225.645 306.837 226.383 307.314C228.125 308.375 229.269 309.622 229.135 309.736Z" fill="#EB996E"/>
<path d="M232.309 305.84C231.081 305.983 229.836 305.842 228.671 305.427C227.819 305.167 227.027 304.739 226.342 304.17C225.826 303.727 225.61 303.366 225.661 303.314C226.653 303.956 227.715 304.481 228.826 304.881C230.007 305.123 231.171 305.443 232.309 305.84Z" fill="#EB996E"/>
<path d="M213.963 327.794C213.312 327.111 212.735 326.361 212.242 325.557C211.065 323.653 209.577 321.96 207.841 320.548C206.041 319.231 203.81 318.642 201.595 318.899C200.686 319.061 199.802 319.342 198.966 319.733C198.966 319.733 199.152 319.517 199.574 319.259C200.176 318.894 200.84 318.643 201.533 318.517C202.687 318.331 203.866 318.376 205.002 318.65C206.138 318.925 207.208 319.423 208.15 320.115C209.943 321.556 211.441 323.331 212.561 325.341C213.097 326.117 213.566 326.938 213.963 327.794V327.794Z" fill="#EB996E"/>
<path d="M228.403 369.537C225.861 370.078 223.285 370.446 220.694 370.64C218.116 371.013 215.516 371.206 212.912 371.217C215.457 370.677 218.037 370.308 220.632 370.114C223.206 369.747 225.803 369.554 228.403 369.537V369.537Z" fill="#EB996E"/>
<path d="M390.769 26.7467L391.934 28.8803L394.057 30.0449L391.934 31.2096L390.769 33.3329L389.605 31.2096L387.481 30.0449L389.605 28.8803L390.769 26.7467Z" fill="#3D4695"/>
<path d="M415.104 79.4877L416.269 81.6212L418.392 82.7859L416.269 83.9506L415.104 86.0738L413.939 83.9506L411.806 82.7859L413.939 81.6212L415.104 79.4877Z" fill="#3D4695"/>
<path d="M25.149 220.199L26.3137 222.332L28.4473 223.497L26.3137 224.651L25.149 226.785L23.9843 224.651L21.8611 223.497L23.9843 222.332L25.149 220.199Z" fill="#3D4695"/>
<path d="M358.849 39.8573L361.539 44.7737L366.455 47.4639L361.539 50.1437L358.849 55.0601L356.169 50.1437L351.252 47.4639L356.169 44.7737L358.849 39.8573Z" fill="#3D4695"/>
<path d="M46.9586 186.773L49.6385 191.669L54.5446 194.349L49.6385 197.039L46.9586 201.935L44.2788 197.039L39.3727 194.349L44.2788 191.669L46.9586 186.773Z" fill="#3D4695"/>
<path d="M421.721 303.717L424.401 308.623L429.297 311.303L424.401 313.982L421.721 318.888L419.041 313.982L414.135 311.303L419.041 308.623L421.721 303.717Z" fill="#3D4695"/>
</svg>
