<svg width="18" height="18" viewBox="0 0 18 18" fill="none" xmlns="http://www.w3.org/2000/svg">
<path fill-rule="evenodd" clip-rule="evenodd" d="M1.41291 2.99792C1.67929 2.55687 3.14695 0.952644 4.19429 1.00107C4.50737 1.02702 4.78412 1.21641 5.00898 1.43607C5.5253 1.94026 7.00334 3.84717 7.08723 4.24844C7.29134 5.2326 6.11859 5.79992 6.47751 6.79186C7.39252 9.03085 8.96916 10.6074 11.2091 11.5215C12.2003 11.8804 12.7676 10.7077 13.7518 10.9127C14.1522 10.9966 16.0601 12.4745 16.5643 12.9908C16.7831 13.2148 16.9734 13.4924 16.9993 13.8055C17.0383 14.9081 15.3345 16.3965 15.0024 16.5867C14.2188 17.1471 13.1966 17.1376 11.9503 16.5582C8.47273 15.1113 2.91517 9.65871 1.44145 6.04985C0.877565 4.81057 0.838646 3.78144 1.41291 2.99792Z" stroke="white" stroke-width="1.5" stroke-linecap="round" stroke-linejoin="round"/>
</svg>
