<svg width="20" height="16" viewBox="0 0 20 16" fill="none" xmlns="http://www.w3.org/2000/svg">
<path d="M19.262 1.82431C18.5668 2.1242 17.8102 2.34003 17.031 2.42409C17.84 1.94344 18.4459 1.1841 18.7349 0.288536C17.9757 0.740157 17.144 1.05684 16.2767 1.22454C15.9142 0.837023 15.4758 0.528308 14.9888 0.317633C14.5018 0.106957 13.9766 -0.0011627 13.446 9.42914e-06C11.2991 9.42914e-06 9.57246 1.74026 9.57246 3.87581C9.57246 4.17569 9.60881 4.47558 9.66788 4.7641C6.4532 4.59599 3.5861 3.06021 1.68001 0.70883C1.3327 1.30205 1.1507 1.9775 1.15294 2.6649C1.15294 4.00985 1.83677 5.19576 2.87955 5.89322C2.26503 5.86902 1.66489 5.70011 1.12795 5.40023V5.44794C1.12795 7.33131 2.45926 8.89208 4.23359 9.25103C3.90044 9.33757 3.55772 9.38184 3.21352 9.3828C2.96134 9.3828 2.7228 9.35781 2.48198 9.32373C2.9727 10.8595 4.4017 11.975 6.10333 12.0113C4.77202 13.0541 3.10447 13.6675 1.2938 13.6675C0.968919 13.6675 0.669033 13.6562 0.357788 13.6198C2.07532 14.7217 4.11318 15.3578 6.3078 15.3578C13.4324 15.3578 17.3309 9.4555 17.3309 4.33245C17.3309 4.16433 17.3309 3.99622 17.3195 3.8281C18.0738 3.27603 18.7349 2.5922 19.262 1.82431Z" fill="white"/>
</svg>
