<svg width="1128" height="1527" viewBox="0 0 1128 1527" fill="none" xmlns="http://www.w3.org/2000/svg">
<path fill-rule="evenodd" clip-rule="evenodd" d="M629.525 1124.23C910.144 1091.77 1128 853.325 1128 564C1128 252.511 875.489 0 564 0C252.511 0 0 252.511 0 564C0 804.757 150.853 1010.28 363.193 1091.2C358.998 1242.16 355.522 1410.56 353.5 1526.5C353.5 1526.5 652 1492.5 566 1413.5C509.025 1361.16 548.829 1313.21 583.059 1271.98C600.497 1250.97 616.487 1231.71 617.5 1214.5L617.608 1212.65C618.88 1190.94 620.76 1158.83 629.525 1124.23Z" fill="#BCBEDA"/>
</svg>
